<svg width="24" height="25" viewBox="0 0 24 25" fill="none" xmlns="http://www.w3.org/2000/svg">
<path d="M7.8 2.37036H16.2C19.4 2.37036 22 4.97036 22 8.17036V16.5704C22 18.1086 21.3889 19.5839 20.3012 20.6716C19.2135 21.7593 17.7383 22.3704 16.2 22.3704H7.8C4.6 22.3704 2 19.7704 2 16.5704V8.17036C2 6.63211 2.61107 5.15685 3.69878 4.06914C4.78649 2.98143 6.26174 2.37036 7.8 2.37036ZM7.6 4.37036C6.64522 4.37036 5.72955 4.74965 5.05442 5.42478C4.37928 6.09991 4 7.01558 4 7.97036V16.7704C4 18.7604 5.61 20.3704 7.6 20.3704H16.4C17.3548 20.3704 18.2705 19.9911 18.9456 19.3159C19.6207 18.6408 20 17.7251 20 16.7704V7.97036C20 5.98036 18.39 4.37036 16.4 4.37036H7.6ZM17.25 5.87036C17.5815 5.87036 17.8995 6.00206 18.1339 6.23648C18.3683 6.4709 18.5 6.78884 18.5 7.12036C18.5 7.45188 18.3683 7.76982 18.1339 8.00424C17.8995 8.23867 17.5815 8.37036 17.25 8.37036C16.9185 8.37036 16.6005 8.23867 16.3661 8.00424C16.1317 7.76982 16 7.45188 16 7.12036C16 6.78884 16.1317 6.4709 16.3661 6.23648C16.6005 6.00206 16.9185 5.87036 17.25 5.87036ZM12 7.37036C13.3261 7.37036 14.5979 7.89715 15.5355 8.83483C16.4732 9.77251 17 11.0443 17 12.3704C17 13.6964 16.4732 14.9682 15.5355 15.9059C14.5979 16.8436 13.3261 17.3704 12 17.3704C10.6739 17.3704 9.40215 16.8436 8.46447 15.9059C7.52678 14.9682 7 13.6964 7 12.3704C7 11.0443 7.52678 9.77251 8.46447 8.83483C9.40215 7.89715 10.6739 7.37036 12 7.37036ZM12 9.37036C11.2044 9.37036 10.4413 9.68643 9.87868 10.249C9.31607 10.8116 9 11.5747 9 12.3704C9 13.166 9.31607 13.9291 9.87868 14.4917C10.4413 15.0543 11.2044 15.3704 12 15.3704C12.7956 15.3704 13.5587 15.0543 14.1213 14.4917C14.6839 13.9291 15 13.166 15 12.3704C15 11.5747 14.6839 10.8116 14.1213 10.249C13.5587 9.68643 12.7956 9.37036 12 9.37036Z" />
</svg>
