<svg width="1em" height="1em" viewBox="0 0 21 20" fill="currentColor" xmlns="http://www.w3.org/2000/svg" aria-hidden="true" focusable="false" class=""><path fill-rule="evenodd" clip-rule="evenodd" d="M10.5 20c5.523 0 10-4.477 10-10s-4.477-10-10-10S.5 4.477.5 10s4.477 10 10 10zm.61-13.31c2.429-1.32 5.317.5 5.383 3.183h.007c0 .574-.88.572-.894 0a2.75 2.75 0 00-5.486-.32 5.418 5.418 0 00-.03.455c-.006.136-.011.27-.026.403a1.74 1.74 0 01-.173.612 1.997 1.997 0 01-1.327 1.03c-1.25.28-2.324-.694-2.387-1.912-.023-.574.866-.57.894 0 .038.773.846 1.336 1.574.951.567-.305.549-.842.58-1.378a3.671 3.671 0 011.886-3.024zm1.32 1.27c1.25-.281 2.327.693 2.388 1.913l.008.003c.022.574-.865.57-.894 0-.039-.772-.847-1.337-1.577-.95-.523.281-.546.756-.571 1.26l-.006.116a3.669 3.669 0 01-1.898 3.02c-2.426 1.32-5.312-.492-5.38-3.184 0-.575.882-.575.894 0a2.75 2.75 0 005.482.321c.019-.153.024-.302.03-.45.013-.345.026-.678.198-1.018A1.998 1.998 0 0112.43 7.96z" ></path></svg>