<svg width="24" height="25" viewBox="0 0 24 25" fill="none" xmlns="http://www.w3.org/2000/svg">
<path d="M17.9 11.2704C14.7 9.37036 9.35 9.17036 6.3 10.1204C5.8 10.2704 5.3 9.97036 5.15 9.52036C5 9.02036 5.3 8.52036 5.75 8.37036C9.3 7.32036 15.15 7.52036 18.85 9.72036C19.3 9.97036 19.45 10.5704 19.2 11.0204C18.95 11.3704 18.35 11.5204 17.9 11.2704ZM17.8 14.0704C17.55 14.4204 17.1 14.5704 16.75 14.3204C14.05 12.6704 9.95 12.1704 6.8 13.1704C6.4 13.2704 5.95 13.0704 5.85 12.6704C5.75 12.2704 5.95 11.8204 6.35 11.7204C10 10.6204 14.5 11.1704 17.6 13.0704C17.9 13.2204 18.05 13.7204 17.8 14.0704ZM16.6 16.8204C16.4 17.1204 16.05 17.2204 15.75 17.0204C13.4 15.5704 10.45 15.2704 6.95 16.0704C6.6 16.1704 6.3 15.9204 6.2 15.6204C6.1 15.2704 6.35 14.9704 6.65 14.8704C10.45 14.0204 13.75 14.3704 16.35 15.9704C16.7 16.1204 16.75 16.5204 16.6 16.8204ZM12 2.37036C10.6868 2.37036 9.38642 2.62902 8.17317 3.13157C6.95991 3.63411 5.85752 4.37071 4.92893 5.29929C3.05357 7.17466 2 9.7182 2 12.3704C2 15.0225 3.05357 17.5661 4.92893 19.4414C5.85752 20.37 6.95991 21.1066 8.17317 21.6092C9.38642 22.1117 10.6868 22.3704 12 22.3704C14.6522 22.3704 17.1957 21.3168 19.0711 19.4414C20.9464 17.5661 22 15.0225 22 12.3704C22 11.0571 21.7413 9.75678 21.2388 8.54353C20.7362 7.33027 19.9997 6.22788 19.0711 5.29929C18.1425 4.37071 17.0401 3.63411 15.8268 3.13157C14.6136 2.62902 13.3132 2.37036 12 2.37036Z" />
</svg>
