<svg width="24" height="25" viewBox="0 0 24 25" fill="none" xmlns="http://www.w3.org/2000/svg">
<path d="M10 15.3704L15.19 12.3704L10 9.37036V15.3704ZM21.56 7.54036C21.69 8.01036 21.78 8.64036 21.84 9.44036C21.91 10.2404 21.94 10.9304 21.94 11.5304L22 12.3704C22 14.5604 21.84 16.1704 21.56 17.2004C21.31 18.1004 20.73 18.6804 19.83 18.9304C19.36 19.0604 18.5 19.1504 17.18 19.2104C15.88 19.2804 14.69 19.3104 13.59 19.3104L12 19.3704C7.81 19.3704 5.2 19.2104 4.17 18.9304C3.27 18.6804 2.69 18.1004 2.44 17.2004C2.31 16.7304 2.22 16.1004 2.16 15.3004C2.09 14.5004 2.06 13.8104 2.06 13.2104L2 12.3704C2 10.1804 2.16 8.57036 2.44 7.54036C2.69 6.64036 3.27 6.06036 4.17 5.81036C4.64 5.68036 5.5 5.59036 6.82 5.53036C8.12 5.46036 9.31 5.43036 10.41 5.43036L12 5.37036C16.19 5.37036 18.8 5.53036 19.83 5.81036C20.73 6.06036 21.31 6.64036 21.56 7.54036Z" />
</svg>
