<svg width="24" height="25" viewBox="0 0 24 25" fill="none" xmlns="http://www.w3.org/2000/svg">
<path d="M22.46 6.37036C21.69 6.72036 20.86 6.95036 20 7.06036C20.88 6.53036 21.56 5.69036 21.88 4.68036C21.05 5.18036 20.13 5.53036 19.16 5.73036C18.37 4.87036 17.26 4.37036 16 4.37036C13.65 4.37036 11.73 6.29036 11.73 8.66036C11.73 9.00036 11.77 9.33036 11.84 9.64036C8.28004 9.46036 5.11004 7.75036 3.00004 5.16036C2.63004 5.79036 2.42004 6.53036 2.42004 7.31036C2.42004 8.80036 3.17004 10.1204 4.33004 10.8704C3.62004 10.8704 2.96004 10.6704 2.38004 10.3704V10.4004C2.38004 12.4804 3.86004 14.2204 5.82004 14.6104C5.19077 14.7826 4.53013 14.8065 3.89004 14.6804C4.16165 15.5328 4.69358 16.2788 5.41106 16.8133C6.12854 17.3478 6.99549 17.6441 7.89004 17.6604C6.37367 18.8608 4.49404 19.5097 2.56004 19.5004C2.22004 19.5004 1.88004 19.4804 1.54004 19.4404C3.44004 20.6604 5.70004 21.3704 8.12004 21.3704C16 21.3704 20.33 14.8304 20.33 9.16036C20.33 8.97036 20.33 8.79036 20.32 8.60036C21.16 8.00036 21.88 7.24036 22.46 6.37036Z" />
</svg>
