<?xml version="1.0" encoding="UTF-8"?>
<svg width="208px" height="40px" viewBox="0 0 208 40" version="1.1" xmlns="http://www.w3.org/2000/svg" xmlns:xlink="http://www.w3.org/1999/xlink">
    <!-- Generator: Sketch 52.6 (67491) - http://www.bohemiancoding.com/sketch -->
    <title>Group 46</title>
    <desc>Created with Sketch.</desc>
    <defs>
        <linearGradient x1="100%" y1="50%" x2="-2.22044605e-14%" y2="50%" id="linearGradient-1">
            <stop stop-color="#ED4947" offset="0%"></stop>
            <stop stop-color="#D62322" offset="100%"></stop>
        </linearGradient>
        <polygon id="path-2" points="8.30769231e-05 0.386105263 53.9024677 0.386105263 53.9024677 39.9997895 8.30769231e-05 39.9997895"></polygon>
        <polygon id="path-4" points="0 40 208 40 208 1 0 1"></polygon>
    </defs>
    <g id="Desktop" stroke="none" stroke-width="1" fill="none" fill-rule="evenodd">
        <g id="CCW_首頁" transform="translate(-32.000000, -23.000000)">
            <g id="Group-46" transform="translate(32.000000, 23.000000)">
                <path d="M27.1288823,14 C26.2679851,15.0657209 25.6305781,16.3514808 25.2873911,17.7700301 C24.7433142,20.0095762 24.9772672,22.3780812 25.942376,24.4371697 C26.2056256,24.9968434 26.517842,25.5199149 26.8710735,26 C27.2623904,25.5160844 27.6122737,24.9857776 27.9073308,24.4103564 C28.9414955,22.3942543 29.2549675,20.0376663 28.7904095,17.7764143 C28.5016302,16.3753148 27.9278383,15.0870012 27.1288823,14" id="Fill-1" fill="url(#linearGradient-1)"></path>
                <g id="Group-5">
                    <mask id="mask-3" fill="white">
                        <use xlink:href="#path-2"></use>
                    </mask>
                    <g id="Clip-4"></g>
                    <path d="M45.3953908,24.3429474 C44.3477908,27.7694737 42.0856062,30.5736842 39.0229754,32.2406316 C36.0650215,33.8490526 32.6659292,34.2250526 29.4471138,33.2978947 C28.4668062,33.0157895 27.5326062,32.6141053 26.65656,32.1138947 C25.8274523,32.5324211 24.9518215,32.8629474 24.0417138,33.0932632 C20.7738831,33.9227368 17.3681446,33.4263158 14.45256,31.6970526 C11.4588831,29.9223158 9.30096,27.0406316 8.37382154,23.5833684 C7.46703692,20.1964211 7.84254462,17.4894737 9.43596,14.3896842 C10.6663292,11.9997895 12.53016,10.0701053 14.8284831,8.80905263 C16.0202215,8.15642105 17.5804062,8.48778947 18.3127292,9.54842105 C19.0475446,10.6090526 18.6745292,11.9997895 17.4848677,12.6532632 C16.0422369,13.4435789 14.8509138,14.4789474 14.0396677,16.0553684 C12.9152215,18.2414737 12.6539446,20.1227368 13.2986215,22.5345263 C13.9270985,24.8793684 15.3348369,26.7972632 17.2576523,27.9395789 C18.94536,28.9387368 20.8133446,29.2187368 22.6580677,28.7522105 C22.6937908,28.7429474 22.7278523,28.7282105 22.7635754,28.7185263 C22.1712369,27.9509474 21.6549138,27.1138947 21.2320523,26.2162105 C19.8758215,23.3332632 19.5443446,20.0305263 20.3003446,16.9185263 C21.0629908,13.7833684 22.8715754,11.0338947 25.3975292,9.17705263 C25.5960831,9.03094737 25.8158215,8.92736842 26.0422062,8.84357895 C26.9473292,8.42252632 28.0854831,8.51263158 28.8934062,9.15221053 C31.3445908,11.0974737 33.0563908,13.9063158 33.7081292,17.0616842 C34.35696,20.204 33.9124985,23.4915789 32.4549138,26.3244211 C31.9718215,27.2625263 31.3844677,28.1273684 30.7156985,28.9109474 C30.8116523,28.9429474 30.9076062,28.9753684 31.0043908,29.0031579 C32.8225292,29.5265263 34.6826215,29.3130526 36.3836215,28.3875789 C38.3371754,27.3256842 39.8018215,25.4675789 40.5079754,23.1572632 C41.23656,20.772 41.05836,18.8797895 40.0078523,16.6494737 C39.24936,15.0385263 38.0958369,13.7378947 36.67356,12.8877895 C35.5133908,12.1943158 35.2026831,10.7905263 35.9831908,9.756 C36.7616215,8.72147368 38.3350985,8.44442105 39.4956831,9.13957895 C41.7424985,10.4827368 43.5357138,12.4747368 44.6771908,14.9012632 C46.1634369,18.0566316 46.4180677,20.9909474 45.3953908,24.3429474 M26.9510677,0.385894737 C12.0665908,0.385894737 8.30769231e-05,9.25368421 8.30769231e-05,20.1917895 C8.30769231e-05,31.1324211 12.0665908,39.9997895 26.9510677,39.9997895 C41.83596,39.9997895 53.9024677,31.1315789 53.9024677,20.1917895 C53.9024677,9.25368421 41.83596,0.385894737 26.9510677,0.385894737" id="Fill-3" fill="url(#linearGradient-1)" mask="url(#mask-3)"></path>
                </g>
                <path d="M167.418444,34.9931896 C166.322358,31.634885 165.182597,28.3030206 164,25 C164.432555,25.0096146 164.782799,25.0148225 165.052411,25.0156237 C165.35016,25.0156237 165.700403,25.0096146 166.105661,25.0016024 L167.980346,31.0600112 L168.763985,33.4456374 C168.934907,33.0842881 169.19402,32.502604 169.538804,31.704591 C169.885268,30.9073792 170.133042,30.3176829 170.282127,29.9363032 C170.076768,29.2548674 169.815975,28.4280106 169.500168,27.4581364 C169.183941,26.489464 168.90845,25.6702187 168.671594,25.0036055 C169.053334,25.0128195 169.38846,25.0188286 169.67655,25.0188286 C169.995716,25.0188286 170.329582,25.0156237 170.680245,25.0052079 C170.890643,25.8857463 171.124139,26.7570707 171.378633,27.6191812 C171.755753,26.7382421 172.101797,25.8681195 172.415925,25.007211 C172.806904,25.0172262 173.121871,25.0232353 173.360407,25.0232353 C173.635898,25.0232353 173.950445,25.0176268 174.305308,25.0096146 C174.017638,25.6333627 173.660675,26.4285714 173.23484,27.3988462 C172.809844,28.3687205 172.466739,29.1775499 172.205107,29.8253345 C172.303796,30.1774698 172.486897,30.7739764 172.756089,31.614454 C173.024022,32.4553321 173.220981,33.0486339 173.345708,33.3959619 L175.162859,29.2108004 L176.481102,26.0800417 L176.912397,25.0116177 C177.344952,25.0208317 177.692256,25.0268408 177.952629,25.0268408 C178.240719,25.0268408 178.590543,25.0232353 179,25.0128195 L177.728372,27.7417675 L175.070889,33.6395321 L174.47623,35 C173.994541,34.9899848 173.584663,34.9843763 173.241979,34.9843763 C172.882076,34.9843763 172.468839,34.9891836 172.002268,34.9975963 C171.738535,34.010496 171.448345,33.0406217 171.130858,32.0879737 C170.701243,33.0406217 170.296405,34.0092941 169.912145,34.9955933 C169.432135,34.9859787 169.015958,34.9799696 168.665715,34.9799696 C168.297413,34.9791683 167.881236,34.9843763 167.418444,34.9931896" id="Fill-6" fill="#BA9A47"></path>
                <path d="M69.8427122,33.8650597 C69.7406876,34.474251 69.6531166,35.0932472 69.5791488,35.7216222 C69.060099,35.8252146 68.5852598,35.896834 68.1533559,35.9394646 C67.721027,35.9795373 67.351188,36 67.0417136,36 C66.3602747,36 65.7081679,35.8904394 65.0875187,35.6708918 C64.4677196,35.4526231 63.9091353,35.1081679 63.4113406,34.6383788 C62.913971,34.1685896 62.5547596,33.5973396 62.3324312,32.9276129 C62.1101027,32.2587389 61.9995761,31.5250663 62.0000012,30.7312846 C62.0004263,29.8701466 62.136459,29.075086 62.4046985,28.3418397 C62.6746385,27.6098724 63.0602062,26.992155 63.5631021,26.489114 C64.0668482,25.9873519 64.6624165,25.6126289 65.3493817,25.367503 C66.0359217,25.1206719 66.7530692,24.9978958 67.4991236,25.0000273 C68.2362509,25.0000273 69.0413945,25.097225 69.9145545,25.2920469 C69.9273075,25.7537362 69.9404857,26.0802866 69.954089,26.2729769 L70,27.1072576 C69.4856263,26.9473929 69.0588237,26.8399638 68.7161913,26.7807073 C68.3752593,26.7227297 68.0509063,26.6924619 67.7414319,26.6924619 C67.2538396,26.6920356 66.7866523,26.7764442 66.3373192,26.9448351 C65.8901117,27.1127996 65.4939164,27.3805198 65.1500087,27.7492744 C64.806101,28.1176028 64.5412623,28.5626662 64.356768,29.0836121 C64.1718485,29.604558 64.078326,30.1485244 64.078326,30.7146587 C64.0774758,31.3890747 64.1914032,31.9948555 64.4179827,32.5285906 C64.6445622,33.0644572 65.0101501,33.4984366 65.5117707,33.8309553 C66.0142415,34.1634739 66.6365912,34.3310122 67.3783946,34.3310122 C68.0653598,34.3322911 68.8866573,34.1771157 69.8427122,33.8650597" id="Fill-8" fill="#BA9A47"></path>
                <path d="M114.843121,32.8669229 C114.741511,33.4747883 114.65393,34.0924579 114.57953,34.7220632 C114.06,34.824795 113.585536,34.8976877 113.153162,34.9386099 C112.721213,34.9808109 112.35091,35.0004195 112.040552,34.9999932 C111.359892,34.9999932 110.707717,34.890441 110.087428,34.6700579 C109.467138,34.4539374 108.909346,34.1090826 108.411073,33.6389034 C107.913226,33.1687242 107.553552,32.5987972 107.332051,31.9278434 C107.109699,31.259021 106.998735,30.5266839 107.000011,29.732111 C107.000861,28.8701869 107.135633,28.0743352 107.4039,27.3411455 C107.674294,26.6100873 108.059477,25.9941227 108.564126,25.4898417 C109.06665,24.9876921 109.662281,24.6134244 110.350168,24.3674648 C111.03593,24.1215053 111.752728,23.9983124 112.498861,24.0000175 C113.236916,24.0000175 114.041719,24.0972077 114.914971,24.2924408 C114.927725,24.7540945 114.941755,25.0810459 114.954509,25.2741476 L115,26.1070851 C114.485147,25.9480852 114.0583,25.8402382 113.718182,25.7814125 C113.376789,25.7238656 113.050276,25.693174 112.741195,25.693174 C112.253976,25.6923214 111.78674,25.7762972 111.33906,25.9455276 C110.88968,26.114758 110.493018,26.3824575 110.149499,26.7490523 C109.80513,27.1182047 109.541539,27.5632338 109.356175,28.0832869 C109.171236,28.6067502 109.079404,29.1481169 109.078979,29.7154864 C109.077279,30.3898503 109.191218,30.995158 109.418246,31.5301307 C109.644425,32.0646771 110.009626,32.498623 110.512575,32.8306897 C111.014248,33.163609 111.636663,33.330708 112.378119,33.330708 C113.065156,33.3315605 113.886965,33.1772497 114.843121,32.8669229" id="Fill-10" fill="#BA9A47"></path>
                <path d="M79,11.5191911 L76.4489463,13.6586876 C74.4183614,11.6116385 72.8716696,8.92571193 71.807189,5.59719356 L73.5682905,5 C74.5444847,7.54189022 76.3556151,9.71646719 79,11.5191911 Z M77.9796626,17.6170037 L75.1313784,19 C75.1212886,18.9418077 74.8740869,18.3392489 74.3914551,17.1964507 C73.0078827,17.6417664 69.8148615,18.1857202 64.81071,18.825423 L63.7903726,16.4238547 L66.1114615,16.3945522 C67.7464396,14.0862567 68.8870146,12.0247627 69.5352882,10.2108956 L72.6463293,11.0693355 C71.7029271,12.6896409 70.1776762,14.4696657 68.0705765,16.4094098 C69.2561354,16.3801073 71.198434,16.2455634 73.8974723,16.0024763 C73.5569394,15.2649608 73.1344264,14.5266199 72.6299333,13.791168 L73.9630564,13.1068923 C75.4668664,14.4069336 76.8050344,15.9104416 77.9796626,17.6170037 Z M70.0784592,6.64424267 C68.542698,9.47791993 66.5726523,11.7915807 64.1691629,13.5864631 L63,12.6991333 C64.9650008,10.3615353 66.4351779,7.90094924 67.4117925,5.32108956 L70.0784592,6.64424267 Z" id="Fill-12" fill="#3F3A3A"></path>
                <path d="M88.5819343,11.684037 C88.4499356,11.3094564 88.2796826,10.7714819 88.0715956,10.0701135 L85.4379286,10.0701135 L85.4379286,11.684037 L88.5819343,11.684037 Z M85.4379286,8.9888542 L92.6638028,8.9888542 L92.6638028,7.08817436 L85.4379286,7.08817436 L85.4379286,8.9888542 Z M96.9836053,17.171622 C96.4678017,18.2839261 95.7598854,18.8410994 94.8602769,18.8410994 C94.0148971,18.8410994 92.9837104,18.2079479 91.7654555,16.9408281 C90.5472005,15.6737082 89.6370826,14.280775 89.0325793,12.7632539 L85.4610494,12.7632539 L85.4610494,15.8897966 C86.755813,15.6108015 88.1106907,15.2513349 89.5265232,14.8093543 L90.0864665,15.933096 C87.6285174,17.1319989 84.9725703,18.1556619 82.1190457,19 L81,16.7966329 C81.4388744,16.739445 81.976958,16.6377323 82.6125693,16.4947626 L82.6125693,5 L85.4610494,6.00895749 L92.5717401,6.00895749 L93.9219936,5 L96.3416883,6.64129198 L95.5354037,7.33449071 L95.5354037,10.3156129 L92.6877644,10.7612698 L92.6877644,10.0701135 L91.0415649,10.0701135 C91.1508631,10.5594783 91.3211161,11.0986783 91.5519035,11.684037 L94.4323323,11.684037 L95.4034051,10.9058734 L97,12.1435824 L97,12.7632539 L92.013058,12.7632539 C92.4628622,13.6092259 92.9618507,14.333061 93.5108641,14.9384355 C94.070387,15.5335979 94.4323323,15.8317918 94.5971204,15.8317918 C94.7505583,15.8317918 95.0469247,15.1161264 95.4857991,13.6847956 L96.6380547,14.0009629 C96.4732666,14.7427713 96.3912929,15.3187349 96.3912929,15.7313045 C96.3912929,16.3840633 96.5888705,16.8636244 96.9836053,17.171622 Z" id="Fill-14" fill="#3F3A3A"></path>
                <path d="M113.847593,10.3965086 L111.773176,12.2207459 C111.125709,10.7005481 110.457221,9.54861773 109.765609,8.76453765 L110.801556,7.89746187 C111.877444,8.57477359 112.892369,9.40723308 113.847593,10.3965086 Z M109.354005,16.8972831 L110.571579,16.8972831 L110.571579,14.206387 L109.354005,14.206387 L109.354005,16.8972831 Z M105.979189,16.8972831 L107.16481,16.8972831 L107.16481,14.206387 L105.979189,14.206387 L105.979189,16.8972831 Z M102.67038,16.8972831 L103.773176,16.8972831 L103.773176,14.206387 L102.67038,14.206387 L102.67038,16.8972831 Z M101.715157,11.0162655 L102.67038,11.0162655 L102.67038,9.9865348 L101.715157,9.9865348 L101.715157,11.0162655 Z M101.715157,8.88214967 L105.007988,8.88214967 L105.007988,7.89746187 L101.715157,7.89746187 L101.715157,8.88214967 Z M101.715157,6.79391087 L102.67038,6.79391087 L102.67038,5.79337464 L101.715157,5.79337464 L101.715157,6.79391087 Z M115,18 L99,18 L99,16.8972831 L100.234391,16.8972831 L100.234391,12.6177908 L99.2791675,12.8392517 L99.2791675,4 L101.715157,4.70608913 L106.07757,4.70608913 L106.867564,4.04462583 L108.34959,5.23576025 L108.34959,5.79337464 L104.694766,5.79337464 L104.694766,6.79391087 L104.94156,6.79391087 L106.061173,5.95561249 L108.086399,7.36779075 L107.411184,7.95585081 L107.411184,8.98558151 C108.377339,7.48456864 108.969308,5.82465443 109.189195,4 L111.64116,4.69107483 C111.433046,5.3379409 111.224511,5.90222831 111.015976,6.38352002 L112.431575,6.38352002 L113.403195,5.58859628 L115,6.85480219 L115,7.48456864 L110.457221,7.48456864 C109.852638,8.54307674 109.133698,9.36802908 108.30082,9.95692326 L107.411184,9.32382031 L107.411184,10.177133 L105.007988,10.5733437 L105.007988,9.9865348 L104.694766,9.9865348 L104.694766,11.0158484 L106.851167,11.0158484 L107.708009,10.3093422 L109.237965,11.5305052 L109.237965,12.1181482 L101.715157,12.1181482 L101.715157,12.2949833 L100.859155,12.4989276 L102.67038,13.1032531 L110.554761,13.1032531 L111.444398,12.4413727 L113.518394,13.8681482 L113.008409,14.3381792 L113.008409,16.7066849 L113.583141,16.2212226 L115,17.3827455 L115,18 Z" id="Fill-16" fill="#3F3A3A"></path>
                <path d="M130.742173,6.71441076 L128.652238,6.71441076 C128.926665,7.42394888 129.34356,8.03953549 129.90208,8.55790272 C130.308468,8.04893065 130.589199,7.43497797 130.742173,6.71441076 Z M122.334524,17.1859189 L129.54108,17.1859189 L129.54108,16.6238438 L122.334524,16.6238438 L122.334524,17.1859189 Z M122.334524,15.5442185 L129.54108,15.5442185 L129.54108,15.0397397 L122.334524,15.0397397 L122.334524,15.5442185 Z M122.334524,13.9588889 L129.54108,13.9588889 L129.54108,13.4981181 L122.334524,13.4981181 L122.334524,13.9588889 Z M128.652238,9.88302746 C128.235764,9.42143962 127.856693,8.86058997 127.516705,8.1980276 L127.516705,8.7735827 L125.870981,8.7735827 C126.40933,9.30175357 126.930027,9.99372684 127.435175,10.8486856 L125.509561,11.6542176 C125.289767,10.7988504 124.994327,9.96023109 124.621139,9.13345782 L125.739861,8.7735827 L124.274848,8.7735827 L124.274848,10.5594783 C124.274848,11.6260322 123.73818,12.1586963 122.662744,12.1586963 L121.247321,12.1586963 L122.334104,12.4323812 L126.431183,12.4323812 L125.969742,11.857643 C127.056524,11.2718758 127.949569,10.6129898 128.652238,9.88302746 Z M121.724732,10.0272226 L121.724732,8.7735827 L119.256567,8.7735827 L121.247321,9.13345782 C121.061568,9.63303475 120.858163,10.0133341 120.63879,10.2714965 L121.313301,10.3450238 L121.396512,10.3450238 C121.615465,10.3450238 121.724732,10.2384092 121.724732,10.0272226 Z M134,10.7044904 L132.897247,12.6480612 C131.668418,12.2550988 130.653078,11.6934321 129.85207,10.9626528 C129.291868,11.4438479 128.457659,11.9328042 127.348603,12.4323812 L129.423408,12.4323812 L130.395041,11.6109182 L132.798487,13.095352 L132.255936,13.5990138 L132.255936,18.4105564 L129.537718,18.8852158 L129.537718,18.2663613 L122.32738,18.2663613 L122.32738,18.5678231 L119.595293,19 L119.595293,11.7980043 L121.092667,12.1006915 C121.038033,11.5435182 120.691742,11.2224492 120.055894,11.1350334 C119.63858,11.617454 119.244799,11.9912176 118.871191,12.2591836 L118,11.7404079 C118.503887,10.9058734 118.877075,9.91774867 119.118302,8.7735827 L118.1639,8.7735827 L118.1639,7.69395734 L121.010717,7.69395734 L121.010717,5 L123.463333,5.34598664 L123.463333,5.79368599 L124.434545,5.79368599 L125.142677,5.22997695 L126.21349,6.28182534 L126.21349,6.87249438 L123.463333,6.87249438 L123.463333,7.69395734 L125.207817,7.69395734 L126.14709,6.9876871 L127.464173,8.06731246 C127.266232,7.69395734 127.103173,7.24217314 126.970372,6.71441076 L126.49254,6.71441076 L126.49254,5.64908237 L130.675352,5.64908237 L131.547384,5 L133.752889,6.25404838 L133.011977,6.87249438 C132.650557,7.95783853 132.101702,8.87978875 131.366674,9.63752808 C131.992435,10.0505062 132.870351,10.406705 134,10.7044904 Z" id="Fill-18" fill="#3F3A3A"></path>
                <path d="M148.586463,15.34161 L148.586463,9.69594141 L145.822534,9.69594141 C145.941808,10.3764771 146.059843,10.9540746 146.178291,11.4234237 C146.436649,10.8670674 146.652497,10.3013159 146.82501,9.72371838 L148.553033,10.5022904 C148.068923,11.7220261 147.476269,12.8073702 146.77631,13.7575059 C146.787454,13.8151023 146.809327,13.8878126 146.841519,13.9731859 C146.905902,14.1941762 146.964507,14.305284 147.018159,14.305284 C147.094098,14.305284 147.255468,13.915998 147.503921,13.137426 L148.42468,13.4981181 C148.32728,13.8347095 148.27858,14.132495 148.27858,14.3922913 C148.27858,14.737461 148.381758,15.0540367 148.586463,15.34161 Z M148.586463,8.96107723 L148.586463,6.94438771 L146.986793,6.94438771 C147.299216,7.14658769 147.626083,7.40434161 147.972348,7.72255128 L146.501444,8.52849182 C146.319439,8.03953549 146.08213,7.58775129 145.791168,7.17559011 L146.1948,6.94438771 L145.467189,6.94438771 C145.510937,7.46398039 145.574907,8.02564701 145.661989,8.62979605 L146.841519,8.62979605 L147.471729,8.08201791 L148.586463,8.96107723 Z M141.717705,12.6198757 L142.333058,12.6198757 L142.333058,11.5390249 L141.717705,11.5390249 L141.717705,12.6198757 Z M148.586463,17.1418026 L148.586463,15.5442185 C148.21007,16.4657602 147.702022,16.9265311 147.067272,16.9265311 C146.410235,16.9265311 145.848948,16.4224608 145.386711,15.4143203 C144.945109,15.865696 144.319851,16.4028536 143.512588,17.0270184 L142.752786,16.4363493 C143.021874,16.1687918 143.328518,15.8272985 143.673545,15.4143203 C142.607099,15.7778718 141.417251,16.1193651 140.103178,16.4363493 L139.633925,15.2407143 L139.633925,17.1418026 L148.586463,17.1418026 Z M144.836566,13.8878126 C144.621544,13.1758235 144.412712,12.3645727 144.208007,11.4524261 L143.996698,11.6260322 L143.996698,13.8731071 L142.333058,14.1896828 L142.333058,13.7007265 L141.717293,13.7007265 L141.717293,14.0458962 L140.070161,14.3628804 L140.070161,9.92591836 L141.717293,10.4736965 L142.300867,10.4736965 L143.027652,9.92591836 L144.029303,10.6170747 C143.996698,10.445511 143.94222,10.137105 143.86752,9.69594141 L139.633925,9.69594141 L139.633925,14.8093543 C141.282295,14.655764 142.828725,14.4780731 144.271977,14.2758731 L144.352868,14.5503749 C144.578209,14.251364 144.739992,14.0311907 144.836566,13.8878126 Z M145.127528,6.94438771 L139.633925,6.94438771 L139.633925,8.62979605 L143.706149,8.62979605 C143.663227,8.34181426 143.603384,7.85244945 143.527445,7.16170163 L145.127528,6.94438771 Z M152,6.64129198 L151.241436,7.27607738 L151.241436,18.4669273 L148.589352,18.8709188 L148.589352,18.2238789 L139.63475,18.2238789 L139.63475,18.5980509 L137,19 L137,5 L139.63475,5.86476235 L148.492778,5.86476235 L149.624845,5 L152,6.64129198 Z" id="Fill-20" fill="#3F3A3A"></path>
                <path d="M165.737734,11.1795583 L165.737734,10.6031862 L164.470029,10.6031862 L165.737734,11.1795583 Z M165.737734,12.4744551 L165.737734,11.2371546 C165.321052,11.7837073 164.776548,12.1975024 164.108007,12.4744551 L165.737734,12.4744551 Z M164.172759,10.6031862 L162.955089,10.6031862 L162.955089,12.4184927 C163.151867,12.2354915 163.399942,11.9140139 163.696371,11.4524261 C164.003311,10.9920637 164.161827,10.7085753 164.172759,10.6031862 Z M163.745145,8.03953549 C163.021102,7.57753917 162.510656,7.18498527 162.214648,6.85819741 C161.500696,7.38677676 160.748482,7.78055612 159.959267,8.03953549 L163.745145,8.03953549 Z M160.716527,12.4744551 L160.716527,11.7269279 L159.810422,12.4744551 L160.716527,12.4744551 Z M160.721152,11.5537303 L160.721152,10.6031862 L158.827793,10.6031862 C159.354216,10.728591 159.986177,11.0451667 160.721152,11.5537303 Z M158.411531,17.2582208 L165.326098,17.2582208 L165.326098,16.739445 L158.411531,16.739445 L158.411531,17.2582208 Z M158.411531,15.6598197 L165.326098,15.6598197 L165.326098,15.1839349 L158.411531,15.1839349 L158.411531,15.6598197 Z M159.44798,12.4744551 C158.790371,11.8135267 158.313142,11.3911534 158.015452,11.2089692 L158.674323,10.6031862 L157.884267,10.6031862 L157.884267,12.4744551 L159.44798,12.4744551 Z M165.737734,13.7293205 L165.737734,13.5561229 L157.884267,13.5561229 L157.884267,13.7150235 L157.259874,13.8436962 L158.411111,14.1034925 L165.21047,14.1034925 L165.737734,13.7293205 Z M166.018185,9.22087357 C165.709983,9.13345782 165.36394,9.00519359 164.980475,8.83240452 L164.980475,9.10486389 L158.658345,9.10486389 L158.658345,8.63020453 C158.218537,8.81279725 157.6261,9.00886996 156.880193,9.22087357 L157.884267,9.52315234 L165.606549,9.52315234 L166.018185,9.22087357 Z M170,7.92311732 L169.210785,9.94062381 C168.749534,9.90222624 168.354716,9.8307414 168.02465,9.72371838 L168.815547,10.2433111 L168.271043,10.6309631 L168.271043,13.5847168 L167.119386,13.915998 L168.354716,14.7799434 L167.843429,15.2272343 L167.843429,18.4244449 L165.325257,18.8566218 L165.325257,18.3227322 L158.41027,18.3227322 L158.41027,18.5833455 L155.8757,19 L155.8757,14.0606016 L155.364833,14.1896828 L155.364833,9.69594141 C155.025517,9.81113413 154.724043,9.89691594 154.45999,9.95369533 L154,9.04767601 C157.03913,7.90555248 159.34833,6.55591865 160.929703,5 L163.941923,5.70667873 L163.382703,6.08003385 C165.017476,7.10778164 167.224082,7.72255128 170,7.92311732 Z" id="Fill-22" fill="#3F3A3A"></path>
                <path d="M187.768994,16.5511335 L185.989954,16.8824147 L185.989954,15.960873 L185.38025,15.960873 L185.38025,18.6683103 L183.288153,19 L183.288153,11.9283109 L185.38025,12.2730721 L185.38025,14.8951361 L185.989954,14.8951361 L185.989954,12.1149885 L187.768994,12.4597497 L187.768994,16.5511335 Z M182.893465,15.9040936 C182.893465,17.4689989 181.557922,18.5008316 178.889362,19 L178.346141,18.0506813 C179.993899,17.5698947 180.816936,16.9065153 180.816936,16.0621772 L180.816936,15.960873 L180.290125,15.960873 L180.290125,16.5368366 L178.510243,16.8546378 L178.510243,12.1149885 L180.290125,12.4597497 L180.290125,14.8951361 L180.816936,14.8951361 L180.816936,11.9283109 L182.893465,12.2730721 L182.893465,15.9040936 Z M188,11.3813498 L186.566838,11.7694103 C186.555897,11.7032358 186.539908,11.6207219 186.516345,11.5247279 C186.507087,11.4095352 186.489415,11.3143582 186.467535,11.2367461 C185.72192,11.46754 184.534911,11.6313425 182.908613,11.7265194 L182.843813,11.3960552 L181.854569,11.6542176 C181.844471,11.5786479 181.805339,11.4389461 181.738856,11.2367461 C181.047521,11.4581449 179.922367,11.6068334 178.362551,11.684037 L178.131966,10.3013159 L178.75808,10.3152044 C179.020644,10.123625 179.268902,9.89323958 179.499066,9.6236396 C179.093018,9.11507601 178.631427,8.65348817 178.115135,8.24051002 L178.790059,7.50646281 C178.912084,7.55507251 179.005496,7.59183614 179.070296,7.62165553 C179.488968,6.92069559 179.812124,6.04694658 180.042709,5 L181.970283,5.33128118 C181.662275,6.40723018 181.080763,7.35205555 180.223222,8.16820821 C180.267824,8.20742275 180.367127,8.28462638 180.52071,8.39900213 C180.993241,7.80424824 181.344168,7.23277799 181.573912,6.68499985 L183.288153,7.1894786 C182.881683,8.1980276 181.942932,9.24048084 180.470638,10.3152044 C180.943169,10.2866105 181.278527,10.2527062 181.47545,10.2139002 C181.38835,9.94552563 181.328179,9.77722989 181.294517,9.71023838 L182.348981,9.39284568 C182.589665,9.74904444 182.777331,10.0607183 182.908613,10.3303183 L183.420697,10.3152044 C183.673162,10.123625 183.920158,9.89323958 184.160842,9.6236396 C183.755214,9.11507601 183.292781,8.65348817 182.777331,8.24051002 L183.485496,7.50646281 C183.530099,7.52484463 183.606259,7.5632422 183.715661,7.62165553 C184.133912,6.92069559 184.464642,6.04694658 184.704905,5 L186.616489,5.33128118 C186.319842,6.40723018 185.742959,7.35205555 184.885417,8.16820821 C184.93002,8.20742275 185.023853,8.28462638 185.166075,8.39900213 C185.627245,7.80424824 185.984063,7.23277799 186.236949,6.68499985 L187.933938,7.1894786 C187.52831,8.1980276 186.587876,9.24048084 185.116844,10.3152044 C185.588955,10.2866105 185.957133,10.2478044 186.220118,10.2004202 C186.198659,10.151402 186.17762,10.0844105 186.154898,9.99822017 C186.132597,9.88302746 186.106088,9.78703352 186.072426,9.71023838 L187.14288,9.40755113 C187.505588,10.0505062 187.791295,10.7081668 188,11.3813498 Z M175.776042,14.8665422 L175.776042,12.7922563 L174.984142,12.7922563 L174.984142,15.0965191 C175.325391,15.0201325 175.588797,14.9433373 175.776042,14.8665422 Z M174.984142,11.7269279 L175.776042,11.7269279 L175.776042,9.78172322 L174.984142,9.78172322 L174.984142,11.7269279 Z M174.984142,8.71680331 L175.776042,8.71680331 L175.776042,6.68499985 L174.984142,6.68499985 L174.984142,8.71680331 Z M179.489809,6.68499985 L178.072636,6.68499985 L178.072636,18.6258279 L175.786141,19 L175.786141,16.3362705 C175.150348,16.8252269 174.119027,17.3399177 172.693018,17.8770752 L172,15.8317918 C172.164944,15.8019724 172.4233,15.7505033 172.774227,15.6737082 L172.774227,6.68499985 L172,6.68499985 L172,5.61885449 L177.118738,5.61885449 L177.942196,5 L179.489809,6.12333324 L179.489809,6.68499985 Z" id="Fill-24" fill="#3F3A3A"></path>
                <mask id="mask-5" fill="white">
                    <use xlink:href="#path-4"></use>
                </mask>
                <g id="Clip-27"></g>
                <path d="M201.355118,16.897316 L202.573144,16.897316 L202.573144,13.8832852 L201.355118,13.8832852 L201.355118,16.897316 Z M201.107896,8.97083619 L203.395112,8.97083619 L203.395112,7.83770741 L201.107896,7.83770741 L201.107896,8.97083619 Z M201.107896,6.73627454 L203.395112,6.73627454 L203.395112,5.67612976 L201.107896,5.67612976 L201.107896,6.73627454 Z M203.395112,10.7212011 L203.395112,10.0585064 L201.124294,10.0585064 C200.89347,11.2354255 200.103456,12.1475171 198.75383,12.7943638 L202.490317,12.7943638 L203.149153,12.3230957 C202.99569,11.9410766 202.555485,11.7208734 201.831901,11.6616521 L201.848719,10.9564181 L203.083143,10.9710149 C203.291683,10.9710149 203.395112,10.8880217 203.395112,10.7212011 Z M197.979372,16.897316 L199.165445,16.897316 L199.165445,13.8832852 L197.979372,13.8832852 L197.979372,16.897316 Z M194.670897,16.897316 L195.774143,16.897316 L195.774143,13.8832852 L194.670897,13.8832852 L194.670897,16.897316 Z M194.2761,10.0301469 L195.757325,10.0301469 L195.757325,8.33816914 L194.2761,8.33816914 L194.2761,10.0301469 Z M194.2761,7.23465102 L195.757325,7.23465102 L195.757325,5.69197772 L194.2761,5.69197772 L194.2761,7.23465102 Z M198.769807,5.22029253 L198.093733,5.73535107 L198.093733,11.4118383 L195.757325,11.8088713 L195.757325,11.1319968 L194.27568,11.1319968 L194.27568,11.7062766 L191.954829,12.1028925 L191.954829,4 L194.27568,4.60389049 L195.674497,4.60389049 L196.662962,4 L198.769807,5.22029253 Z M207,18 L191,18 L191,16.8968989 L192.234424,16.8968989 L192.234424,12.1316691 L194.670897,12.7943638 L198.079017,12.7943638 L197.436999,12.2205011 C198.336329,11.5936727 198.786625,10.5151777 198.786625,8.98543299 L198.786625,4 L201.107476,4.58762549 L203.313546,4.58762549 L204.202785,4 L206.407594,5.22029253 L205.732782,5.72033722 L205.732782,11.4406149 C205.732782,12.2159135 205.355643,12.6079419 204.597162,12.617534 L205.68401,13.4270309 L205.009197,14.0154905 L205.009197,16.7063064 L205.585626,16.2208585 L207,17.3823468 L207,18 Z" id="Fill-26" fill="#3F3A3A" mask="url(#mask-5)"></path>
                <path d="M181.314206,31.931027 L183.256825,31.9336298 L182.460544,29.2146188 L182.048939,30.2045331 L181.314206,31.931027 Z M178,35.9913242 C178.352193,35.2738315 178.76508,34.3854246 179.239515,33.3282724 L180.575626,30.371977 C180.991078,29.4579764 181.337287,28.6684741 181.610835,28 C182.051077,28.0091096 182.361383,28.0121462 182.544318,28.0138814 C182.865737,28.0138814 183.17989,28.0108448 183.487632,28.0030365 L184.20997,30.3993059 L185.782016,35.3553844 L186,36 L185.242186,35.9878538 C185.066517,35.9878538 184.771598,35.9904566 184.356147,35.997831 C184.275365,35.6507971 184.147994,35.1801323 183.974462,34.5888732 C183.79922,33.9976141 183.65176,33.5178397 183.530373,33.1491161 L180.862425,33.1469472 C180.466635,34.0769982 180.08153,35.0265698 179.705829,35.9939269 L178.879201,35.9817807 C178.723193,35.9817807 178.429983,35.9843835 178,35.9913242 Z" id="Fill-28" fill="#595757" mask="url(#mask-5)"></path>
                <path d="M188.90037,35.9978309 L189.016097,34.2868608 L189.13139,31.7403612 L189.207092,29.2324711 L188.846422,29.2324711 L188.51055,29.2389784 L188.191647,29.2441842 L187,29.2801909 C187.027844,28.7197007 187.044377,28.2928258 187.048727,28 C188.039374,28.0091101 189.074831,28.0147497 190.159017,28.0151836 L192.009354,28.011713 L193,28.0065072 C192.96476,28.560924 192.947357,28.9869313 192.947357,29.2866981 C192.323472,29.2532943 191.726996,29.2363755 191.155754,29.235074 L190.758538,29.235074 L190.695018,30.3048642 L190.54318,34.4196085 L190.530563,35.1106773 C190.527953,35.3939591 190.525343,35.6915569 190.525343,36 L189.741353,35.9865517 C189.654775,35.9865517 189.374157,35.9895884 188.90037,35.9978309" id="Fill-29" fill="#595757" mask="url(#mask-5)"></path>
                <path d="M198.883512,34.4458123 C198.806716,34.8892067 198.742864,35.337635 198.688503,35.7957114 C198.298915,35.8712185 197.942548,35.9240734 197.618539,35.9551152 C197.294098,35.9857375 197.015822,36 196.782846,36 C196.272024,35.9995805 195.782775,35.9194591 195.317686,35.7613137 C194.852165,35.6014903 194.432809,35.3498 194.059616,35.0087596 C193.686423,34.6664608 193.41548,34.2515912 193.249377,33.7658289 C193.082842,33.2779692 192.999144,32.7448052 193.000007,32.1680149 C193.000007,31.5417255 193.102257,30.9624183 193.30417,30.4300932 C193.505219,29.8969292 193.796008,29.448501 194.172652,29.08355 C194.551022,28.7177601 194.997128,28.4455151 195.512264,28.265976 C196.027831,28.0876953 196.565833,27.9983453 197.126269,28.0000232 C197.678509,28.0000232 198.282089,28.070077 198.937873,28.2068287 C198.946933,28.5419964 198.956425,28.7802632 198.966779,28.9191123 L199,29.5244276 C198.615158,29.4149423 198.294601,29.3390157 198.03919,29.2991647 C197.783779,29.2576358 197.539586,29.2370811 197.307904,29.2370811 C196.942909,29.2370811 196.591719,29.2983258 196.256493,29.4199761 C195.91954,29.5424654 195.622712,29.7371059 195.365575,30.0055756 C195.107576,30.2723673 194.908252,30.5949504 194.769761,30.9754223 C194.631701,31.3529577 194.56224,31.7476921 194.561377,32.1579473 C194.561377,32.6483239 194.645938,33.088782 194.816788,33.4768045 C194.986774,33.8656661 195.260305,34.1815374 195.636086,34.4214822 C196.013594,34.6639439 196.480408,34.7851747 197.035668,34.7851747 C197.549509,34.7851747 198.166032,34.672753 198.883512,34.4458123" id="Fill-30" fill="#595757" mask="url(#mask-5)"></path>
                <path d="M199,35.9926263 L199.118688,33.8902624 C199.184097,32.7434396 199.230446,31.6794622 199.259468,30.6970288 C199.286757,29.7141618 199.301918,29.0310128 199.301918,28.6441119 L199.29672,28 C199.7013,28.0086749 199.988923,28.0117111 200.15526,28.0130124 C200.282611,28.0130124 200.541646,28.0095424 200.931931,28.0004337 L200.794183,30.6423769 L200.778156,31.2513555 L204.277723,31.2552592 L204.342698,29.6716547 C204.356993,29.1273043 204.365656,28.7698981 204.365656,28.5981349 L204.366522,28.0052049 L205.225928,28.0186511 C205.303032,28.0186511 205.560334,28.0143136 206,28.0065062 L205.8263,31.1984385 L205.75526,33.5640859 L205.7375,34.9520711 C205.730136,35.5224463 205.725804,35.8724789 205.725804,36 L204.923144,35.9882889 C204.823515,35.9882889 204.53849,35.9900239 204.068502,35.9991325 C204.156436,34.8935155 204.213181,33.7297766 204.238304,32.5100846 L200.730941,32.5079159 L200.656436,34.6640642 L200.633478,35.9943613 L199.788366,35.9822164 C199.695235,35.9822164 199.433168,35.9856864 199,35.9926263" id="Fill-31" fill="#595757" mask="url(#mask-5)"></path>
                <path d="M71,34.9973958 C71.0877983,33.6549479 71.1589374,32.2769097 71.2138676,30.8645833 C71.2696983,29.4522569 71.2976137,28.3736979 71.2985142,27.6276042 L71.2935615,27 L72.1846015,27.0121528 C72.2336785,27.0121528 72.5060783,27.0099826 73,27.0008681 C72.8523188,29.0581597 72.7577668,31.7217882 72.7149932,35 L71.9306619,34.9874132 C71.7982891,34.9874132 71.4885187,34.9908854 71,34.9973958" id="Fill-32" fill="#595757" mask="url(#mask-5)"></path>
                <path d="M81,34.9973958 C81.0877983,33.6549479 81.1589374,32.2769097 81.2143179,30.8645833 C81.2696983,29.4522569 81.2971634,28.3736979 81.2980639,27.6276042 L81.2935615,27 L82.1841513,27.0121528 C82.2336785,27.0121528 82.5056281,27.0099826 83,27.0008681 C82.852769,29.0581597 82.756416,31.7217882 82.7154435,35 L81.9302116,34.9874132 C81.7991896,34.9874132 81.4880684,34.9908854 81,34.9973958" id="Fill-33" fill="#595757" mask="url(#mask-5)"></path>
                <path d="M75.8997752,34.9978306 L76.0146494,33.2874498 L76.1308289,30.740102 L76.2056712,28.2331055 L75.8449489,28.2331055 L75.5094641,28.2378783 L75.1905142,28.2430849 L74,28.2808331 C74.0282834,27.7176483 74.0435129,27.2928734 74.046994,27 C75.0377837,27.0095455 76.0746972,27.0138844 77.1568642,27.015186 L79.0100805,27.0117149 L80,27.0047728 C79.9647545,27.5601475 79.9473493,27.986658 79.9460439,28.2864736 C79.3238088,28.2530643 78.7268112,28.235275 78.154616,28.235275 L77.7573428,28.235275 L77.6946842,29.3052392 L77.5415186,33.420653 L77.5310755,34.1105326 C77.5267242,34.3955961 77.5254188,34.6923744 77.5249837,35 L76.7404453,34.9874173 C76.6542897,34.9874173 76.3745014,34.9904545 75.8997752,34.9978306" id="Fill-34" fill="#595757" mask="url(#mask-5)"></path>
                <path d="M84,34.9943598 C84.0298982,34.4624437 84.0463638,34.0212051 84.0502636,33.6689083 L84.2933487,33.3660719 C84.3037481,33.3526222 84.4502058,33.1552145 84.7322886,32.7677748 L87.2658338,29.3337491 L88.0670181,28.2087423 L87.7255723,28.203536 L87.5964469,28.203536 L87.1471077,28.1961603 L86.3632556,28.1961603 C85.7158951,28.1944249 85.0845671,28.2152503 84.4679714,28.2551657 C84.4883368,27.9523293 84.4991695,27.6247627 84.5004694,27.2737676 C84.5004694,27.2078204 84.4983029,27.1154076 84.4952697,27 C85.3904817,27.0082434 86.339857,27.0130159 87.3451289,27.0138836 L89.0636239,27.0112804 L90,27.0043386 C89.9744349,27.4316937 89.9571026,27.8659906 89.950603,28.311134 L89.5991912,28.7502034 C89.5298621,28.8365421 89.4626995,28.925484 89.3981368,29.0187646 L87.5539828,31.5768209 L85.9373149,33.764792 L86.3502564,33.7717338 C87.511952,33.7734693 88.2589731,33.7695645 88.5926193,33.7626227 C88.9262656,33.755247 89.2906767,33.7378925 89.6867191,33.7114269 C89.6581209,34.2593958 89.6407886,34.6884864 89.6329891,35 C88.6489492,34.9913227 87.7472377,34.9869841 86.9274211,34.9861164 L85.0291038,34.9887196 L84,34.9943598 Z" id="Fill-35" fill="#595757" mask="url(#mask-5)"></path>
                <path d="M91,34.9947942 L91.13636,32.7510981 L91.2361453,30.1568787 L91.2977658,27.7969199 L91.2977658,27 C92.0757732,27.0082425 92.8863799,27.0134483 93.7291882,27.0143159 L94.6356047,27.0099778 L96,27.0056396 L95.9423551,28.2741175 L95.4939175,28.2441842 C95.3714717,28.2355078 95.2013199,28.2298682 94.984257,28.2268315 C94.7671941,28.2216257 94.5461557,28.2194566 94.3187565,28.2194566 C93.8289735,28.2190228 93.5117278,28.2194566 93.3686094,28.2216257 C93.2258885,28.2229272 93.0092232,28.2290006 92.7202035,28.2415813 L92.6454639,30.3178244 C93.0760118,30.3299713 93.5085473,30.3360447 93.9450584,30.3369123 C94.2460046,30.3369123 94.75487,30.3265007 95.470462,30.3026409 C95.4450187,30.6596714 95.4227558,31.0865463 95.4032758,31.5841332 C94.5648406,31.5702511 94.0842013,31.5641776 93.9617556,31.5641776 C93.591238,31.56331 93.1296812,31.575023 92.5770852,31.5975815 L92.5011529,33.7809772 L93.0199571,33.7874844 C93.1710265,33.7874844 93.5161008,33.7853153 94.0575654,33.7770728 L95.0800668,33.7540806 L95.7634571,33.710699 C95.731653,34.1662057 95.7093902,34.5948159 95.696271,35 C94.8793035,34.9908899 94.1426413,34.9865517 93.4850918,34.9865517 L91.9338475,34.9895884 L91,34.9947942 Z" id="Fill-36" fill="#595757" mask="url(#mask-5)"></path>
                <path d="M97,34.9930604 C97.0641461,34.295202 97.113424,33.5097316 97.1478335,32.6392518 L97.2663551,29.7697479 C97.3075616,28.730984 97.328802,27.8084576 97.3296517,27 C97.7196262,27.007807 98.0518267,27.0130117 98.3241291,27.0130117 C98.5259133,27.0130117 98.8203059,27.0099756 99.2081563,27.0017349 C99.5858114,27.7720249 100.107052,28.7756574 100.774002,30.0134996 C101.439677,31.252643 101.97706,32.2775278 102.384452,33.0890214 L102.573917,27.6553538 C102.577315,27.5261046 102.57859,27.3101111 102.57859,27.0056384 C102.895497,27.0143128 103.13339,27.0164814 103.294393,27.0182163 C103.358114,27.0182163 103.593883,27.015614 104,27.0069396 L103.873832,29.1555977 L103.717077,32.8331255 L103.65548,35 C103.305862,34.992193 103.007222,34.9878558 102.762107,34.9865546 C102.56627,34.9865546 102.250212,34.9917593 101.813084,34.9995663 C101.646134,34.6504202 101.518692,34.3923557 101.431606,34.2245053 C101.294393,33.9668745 101.002124,33.4364326 100.553526,32.6314448 C100.258709,32.1001355 99.8903993,31.4204934 99.4490229,30.5925183 C99.1240442,29.9814042 98.8462192,29.4522635 98.615548,28.9990241 C98.5879354,29.6300895 98.5454545,30.8041746 98.4864061,32.5182434 C98.462192,33.2161019 98.442226,34.0423421 98.4282073,34.9952291 C98.1121495,34.9865546 97.8840272,34.9830848 97.742141,34.9830848 C97.6312659,34.9830848 97.3836024,34.9852535 97,34.9930604" id="Fill-37" fill="#595757" mask="url(#mask-5)"></path>
                <path d="M120.090212,28.2060177 C119.57198,28.2060177 119.11983,28.3368968 118.735504,28.5982356 C118.351177,28.8612524 118.061192,29.2194921 117.866855,29.6737937 C117.672518,30.1289343 117.575132,30.6197311 117.573828,31.1495399 C117.573828,31.6399172 117.666431,32.0912824 117.852943,32.5044745 C118.039454,32.9185057 118.32683,33.2335385 118.715505,33.4516704 C119.102875,33.6693828 119.521548,33.7767708 119.971523,33.7784487 C120.311505,33.7797072 120.635835,33.7155261 120.944514,33.5867443 C121.254497,33.4592211 121.52057,33.2637413 121.746644,33.0032415 C121.971849,32.7389663 122.141405,32.4239335 122.254877,32.0539483 C122.368784,31.684802 122.425738,31.2997153 122.425738,30.8995272 C122.425738,30.5253471 122.37661,30.1658489 122.274876,29.8227107 C122.174447,29.4791529 122.017499,29.1834164 121.804902,28.9363401 C121.591435,28.6880053 121.335362,28.5055296 121.035813,28.3859765 C120.734525,28.2664235 120.41976,28.2072762 120.090212,28.2060177 M120.174556,27 C120.685832,27.0004195 121.177979,27.0784436 121.647954,27.2349113 C122.118363,27.3888621 122.536167,27.6418112 122.89919,27.9916612 C123.263953,28.3406722 123.537851,28.7467331 123.723059,29.2115219 C123.907396,29.6763106 124,30.2182845 124,30.8366045 C123.998261,31.4184294 123.910874,31.9746657 123.735667,32.5044745 C123.559154,33.0351223 123.28743,33.4915214 122.920059,33.8749301 C122.551818,34.2579194 122.103581,34.5406519 121.575349,34.7256445 C121.048421,34.9085398 120.494104,35.0012458 119.913266,34.9999874 C119.363295,34.9999874 118.834629,34.9152515 118.328134,34.7445213 C117.82164,34.5746302 117.385142,34.3065796 117.020379,33.9445646 C116.655182,33.5817105 116.393022,33.165582 116.235639,32.6957594 C116.078257,32.2250979 116,31.7175218 116,31.1692556 C116.00087,30.5693929 116.09956,29.9963772 116.298245,29.4481111 C116.496495,28.9006839 116.786914,28.4493187 117.171241,28.09024 C117.553829,27.7315808 118.002935,27.4614329 118.51682,27.2760207 C119.03114,27.0914476 119.582849,27 120.174556,27" id="Fill-38" fill="#595757" mask="url(#mask-5)"></path>
                <path d="M125,34.9926263 C125.065,34.2934288 125.114281,33.5100846 125.147842,32.6386901 L125.267221,29.7698981 C125.308005,28.7302104 125.328397,27.8080677 125.328822,27 C125.719245,27.0082412 126.051041,27.0121449 126.32421,27.0130124 C126.526431,27.0130124 126.821266,27.0086749 127.207441,27.0026025 C127.586393,27.7707656 128.107665,28.7744524 128.773806,30.0127955 C129.439097,31.2520061 129.975663,32.2769464 130.385204,33.0889178 L130.574255,27.6549555 C130.577654,27.5265669 130.580203,27.3088267 130.580203,27.0056387 C130.895005,27.0130124 131.133762,27.0177836 131.29435,27.0177836 C131.358925,27.0177836 131.593858,27.0147473 132,27.0069399 L131.874249,29.1557146 L131.71791,32.833008 L131.655034,35 C131.30582,34.9917588 131.008011,34.9874214 130.762457,34.9874214 C130.567458,34.9874214 130.250106,34.9917588 129.812951,34.998265 C129.646416,34.6504012 129.518541,34.3923227 129.431875,34.2257645 C129.294228,33.967686 129.001092,33.4350466 128.552892,32.6308827 C128.258482,32.0995446 127.89015,31.4198655 127.449596,30.5922793 C127.122899,29.9824333 126.846331,29.451529 126.615221,28.9969638 C126.587607,29.6302321 126.545124,30.8026458 126.486921,32.5181089 C126.461856,33.2155715 126.442314,34.0427239 126.429144,34.9934938 C126.111792,34.9856864 125.883231,34.9817827 125.742186,34.9817827 C125.631304,34.9817827 125.383201,34.9852527 125,34.9926263" id="Fill-39" fill="#595757" mask="url(#mask-5)"></path>
                <path d="M136.223209,30.4448839 C136.697814,30.4515949 137.151124,30.4570476 137.584006,30.4578865 C138.151186,30.4578865 138.62188,30.454531 139,30.4478199 C138.909599,31.7128503 138.84484,33.1179737 138.806594,34.6615121 C138.236806,34.7865051 137.720911,34.8741681 137.261517,34.9240814 C136.79995,34.9752531 136.409226,35 136.086303,35 C135.480877,34.9995806 134.920216,34.9291147 134.404321,34.7890218 C133.887557,34.64809 133.450329,34.422012 133.094375,34.108271 C132.737117,33.7949495 132.465044,33.3818013 132.279461,32.8709236 C132.091705,32.3583682 132,31.8177103 132,31.2468527 C132.000435,30.7611415 132.070409,30.2917883 132.210356,29.8383739 C132.349435,29.3866373 132.555445,28.9718113 132.829256,28.5943155 C133.103502,28.2164002 133.43251,27.9026593 133.819757,27.6509954 C134.206134,27.4010093 134.618155,27.2298778 135.052341,27.1380205 C135.486092,27.0453243 135.944617,26.9987665 136.429654,27.0000248 C137.096362,27.0012832 137.862163,27.0981738 138.727058,27.2957299 C138.731404,27.7256557 138.748789,28.1752951 138.783124,28.6450677 C137.971688,28.3489432 137.240656,28.2000421 136.584378,28.2000421 C136.161493,28.2000421 135.762076,28.2637969 135.386129,28.395501 C135.010617,28.528044 134.685956,28.7323112 134.412579,29.008722 C134.138334,29.2859717 133.931019,29.6303318 133.788464,30.0388661 C133.645039,30.4478199 133.573761,30.8714541 133.572892,31.3093493 C133.572892,31.7967383 133.653732,32.2316974 133.817149,32.6150653 C133.978828,32.9975944 134.252639,33.2958161 134.635974,33.5072138 C135.020179,33.7190309 135.460884,33.8255686 135.958525,33.8255686 C136.140196,33.8264075 136.354899,33.8071132 136.602198,33.7727192 C136.848628,33.7370668 137.107662,33.6749897 137.374084,33.5890045 L137.453185,31.5962461 L137.049423,31.5912128 C136.819943,31.5899545 136.528312,31.5949878 136.176704,31.603796 C136.207562,31.0979516 136.223209,30.7116476 136.223209,30.4448839" id="Fill-40" fill="#595757" mask="url(#mask-5)"></path>
                <path d="M141,34.9952407 C141.090484,33.8348296 141.158347,32.5004867 141.204343,30.9930773 C141.250339,29.4873986 141.27296,28.1634397 141.275222,27.020768 C141.632257,27.0289886 141.931608,27.0341806 142.172521,27.0341806 C142.431908,27.0341806 142.686771,27.0289886 142.934471,27.0177393 C143.183679,27.0060573 143.446837,27 143.723567,27 C144.069291,27 144.378067,27.02596 144.651027,27.0783126 C144.922856,27.1297999 145.164146,27.2461871 145.376407,27.4296376 C145.587536,27.6122228 145.745129,27.8346133 145.846546,28.0955111 C145.949472,28.3564089 146.000746,28.6601406 145.999992,29.005841 C145.999992,29.2243375 145.980764,29.4320173 145.941931,29.6280151 C145.902722,29.824013 145.846169,30.0087615 145.769258,30.1813953 C145.693477,30.3544619 145.602616,30.5067604 145.500068,30.6378583 C145.394503,30.7689562 145.292332,30.8710654 145.189029,30.9463494 C145.086481,31.0216333 144.969606,31.0878313 144.838027,31.1414819 C144.70758,31.1964305 144.53189,31.2617631 144.312466,31.340941 L144.615587,32.1110871 C144.713612,32.3572742 144.900235,32.7985938 145.174703,33.4341806 L145.625237,34.4695511 C145.649367,34.5227691 145.721377,34.7005949 145.840137,35 C145.475562,34.990914 145.233894,34.9887507 145.11815,34.9887507 C144.97413,34.9874527 144.721152,34.990914 144.35997,34.9991347 L143.864948,33.4424013 C143.778234,33.2053002 143.6738,32.9249324 143.553155,32.601298 L143.012891,31.1808545 C142.959731,31.0475933 142.884705,30.8498648 142.789697,30.5846403 C142.989139,30.6335316 143.170484,30.659059 143.333732,30.659059 C143.590103,30.659059 143.823476,30.6054083 144.034605,30.4959438 C144.245357,30.3873445 144.407474,30.2199027 144.522087,29.9914548 C144.634438,29.764305 144.691368,29.5176852 144.691368,29.2472688 C144.691368,29.0854516 144.666862,28.9327204 144.618604,28.7929692 C144.569591,28.6523526 144.486648,28.5333694 144.371281,28.4360195 C144.255537,28.3382369 144.116795,28.2772309 143.956563,28.2495403 C143.796331,28.2222823 143.635722,28.2075717 143.47549,28.2075717 C143.386514,28.2067063 143.265115,28.209735 143.110161,28.2127637 C142.955584,28.216225 142.765191,28.218821 142.540112,28.218821 L142.455283,30.6183883 L142.366308,34.996106 L141.673728,34.9839913 C141.56364,34.9835587 141.339315,34.9874527 141,34.9952407" id="Fill-41" fill="#595757" mask="url(#mask-5)"></path>
                <path d="M147,34.9947936 L147.136747,32.7508542 L147.236524,30.157655 L147.29814,27.7970063 L147.298935,27 C148.07688,27.0086773 148.88623,27.012582 149.730164,27.0134498 L150.635316,27.0086773 L152,27.0034709 L151.94236,28.2733879 L151.494753,28.2434514 C151.371124,28.2360757 151.202178,28.2300016 150.985133,28.225663 C150.767292,28.222626 150.546271,28.2187212 150.319288,28.2187212 C149.827954,28.2187212 149.512323,28.2187212 149.368819,28.2217582 C149.225712,28.222626 149.009858,28.2300016 148.720464,28.2412821 L148.646526,30.3177504 C149.076642,30.3307663 149.509143,30.3351049 149.944824,30.3372743 C150.246144,30.3372743 150.754969,30.32556 151.470902,30.3029991 C151.44546,30.6596345 151.422404,31.0856879 151.403323,31.5837627 C150.565352,31.5707468 150.084751,31.5646727 149.962315,31.5646727 C149.591429,31.5646727 149.130307,31.5746516 148.578152,31.5980802 L148.501034,33.7821465 L149.020592,33.7895222 C149.171649,33.7895222 149.517093,33.7843159 150.057322,33.777374 L151.08014,33.7548132 L151.764271,33.7114269 C151.732072,34.166983 151.710208,34.5960735 151.69709,35 C150.879393,34.9913227 150.141596,34.9869841 149.485689,34.9861164 L147.934171,34.990455 L147,34.9947936 Z" id="Fill-42" fill="#595757" mask="url(#mask-5)"></path>
                <path d="M153.092803,34.6954863 C153.069318,34.1216918 153.0375,33.6527575 153,33.2907804 C153.586742,33.6292688 154.121212,33.7991422 154.601894,33.7991422 C154.793561,33.8004005 154.972727,33.7639092 155.139394,33.6909265 C155.306061,33.6166856 155.429545,33.5126644 155.50947,33.3788629 C155.588258,33.2454809 155.628409,33.0949018 155.628409,32.9279645 C155.629924,32.7996157 155.609848,32.6846891 155.571591,32.5823456 C155.514015,32.442672 155.418182,32.2958678 155.284848,32.1452887 C155.112879,31.9372463 154.806818,31.5962413 154.367424,31.119757 C154.157197,30.8882259 154.012879,30.7250636 153.933333,30.6264951 C153.75303,30.4113222 153.61553,30.2175407 153.520076,30.046409 C153.423864,29.8756968 153.354167,29.7028873 153.3125,29.5338529 C153.271212,29.3631406 153.250379,29.1819424 153.250379,28.9902581 C153.251136,28.635831 153.329924,28.3032148 153.4875,27.9915706 C153.645833,27.6782486 153.881818,27.4366509 154.194697,27.2609054 C154.508712,27.0855793 154.903788,26.9987552 155.381061,27.0000135 C155.810985,27.0000135 156.293939,27.0658656 156.829924,27.1988282 C156.845833,27.5935216 156.874621,28.0419034 156.918939,28.5485874 C156.451894,28.3199924 156.020455,28.2059046 155.625,28.2059046 C155.331061,28.2059046 155.090152,28.2889538 154.90303,28.4571494 C154.715909,28.6245061 154.621591,28.8203848 154.621591,29.0426882 C154.621591,29.1030876 154.628409,29.1664231 154.642045,29.2326947 C154.654167,29.2993857 154.674621,29.3623017 154.699621,29.4243789 C154.725758,29.4868755 154.772348,29.5678275 154.838636,29.6693321 C154.906061,29.7679006 155.003788,29.8853439 155.132197,30.0208232 C155.261364,30.1533663 155.37197,30.2624208 155.463258,30.3463089 L156.017045,30.9800833 C156.157955,31.1273069 156.284091,31.2699166 156.395455,31.4116875 C156.505303,31.5509417 156.600758,31.6847432 156.679167,31.8135114 C156.759848,31.9410213 156.821212,32.0647562 156.86553,32.1821995 C156.910985,32.2988039 156.945076,32.4187639 156.966667,32.5416599 C156.989394,32.6632976 157,32.7937436 157,32.9292228 C157,33.2459003 156.94053,33.5462196 156.823864,33.8268252 C156.706439,34.1070114 156.537879,34.3393814 156.318939,34.5184824 C156.1,34.7005196 155.85947,34.8255128 155.598864,34.8959788 C155.338636,34.9643476 155.061364,35 154.770076,35 C154.578409,34.9987417 154.354924,34.9777697 154.100758,34.9349867 C153.844697,34.8938816 153.509091,34.8125101 153.092803,34.6954863" id="Fill-43" fill="#595757" mask="url(#mask-5)"></path>
                <path d="M158.093173,34.6966973 C158.068933,34.1240718 158.037875,33.6542252 158,33.2917722 C158.587066,33.6311524 159.120727,33.8010523 159.601742,33.8018913 C159.793391,33.8018913 159.973677,33.7649748 160.139191,33.6919808 C160.306979,33.6194063 160.430073,33.5141103 160.508853,33.3798684 C160.588391,33.2464656 160.628539,33.095863 160.628539,32.9297387 C160.628539,32.8009504 160.60998,32.6868448 160.571726,32.5836463 C160.514913,32.4435314 160.419089,32.2979628 160.285011,32.1469407 C160.113057,31.9397049 159.807026,31.5973881 159.367674,31.121249 C159.157845,30.8901012 159.013162,30.7260744 158.933624,30.6287491 C158.753338,30.4122841 158.615093,30.2193114 158.519269,30.0468945 C158.423445,29.8765751 158.354512,29.7049972 158.312849,29.5342583 C158.271186,29.363939 158.250734,29.1831319 158.250734,28.9897398 C158.251491,28.6348378 158.330272,28.3034282 158.487454,27.9917353 C158.645772,27.6792035 158.882113,27.4367291 159.196099,27.2609562 C159.508569,27.0864417 159.903986,26.9983455 160.381593,27.0000235 C160.810719,27.0008625 161.293627,27.0671445 161.831077,27.2001278 C161.845469,27.5936243 161.874254,28.0433346 161.919705,28.5500976 C161.451946,28.3214669 161.020547,28.2073613 160.625509,28.2073613 C160.33084,28.2065223 160.090332,28.2895845 159.903229,28.4578063 C159.714989,28.6260282 159.621816,28.8198399 159.621059,29.043017 C159.621059,29.1042648 159.628634,29.1667712 159.641132,29.2334726 C159.653631,29.2997546 159.673326,29.363939 159.69946,29.4264453 C159.725973,29.4881127 159.772181,29.5694968 159.838841,29.6697587 C159.906259,29.7687621 160.003977,29.8862237 160.13351,30.0213046 C160.261528,30.1547075 160.372124,30.2633595 160.463403,30.3460022 L161.017896,30.9815535 C161.158413,31.1292196 161.284159,31.2726906 161.395133,31.4119665 C161.50535,31.5529205 161.600417,31.6854843 161.679955,31.8146921 C161.759492,31.9430609 161.821229,32.0655566 161.865543,32.1830182 C161.910615,32.3004799 161.944323,32.4196195 161.967049,32.5433738 C161.988637,32.666289 162,32.7946578 162,32.9309972 C162,33.2473046 161.941293,33.5459927 161.82388,33.8274812 C161.706467,34.1093891 161.537923,34.3396978 161.319004,34.5205048 C161.100464,34.7017313 160.859578,34.8275831 160.598996,34.8963821 C160.337657,34.96602 160.061547,35 159.771423,35 C159.578638,35 159.355175,34.9790247 159.099896,34.9374936 C158.845753,34.8951235 158.509421,34.8154174 158.093173,34.6966973" id="Fill-44" fill="#595757" mask="url(#mask-5)"></path>
                <polygon id="Fill-45" fill="#4C4948" mask="url(#mask-5)" points="63 22.0522917 208 22.0522917 208 21.9477083 63 21.9477083"></polygon>
            </g>
        </g>
    </g>
</svg>