<svg width="1440" height="342" viewBox="0 0 1440 342" fill="none" xmlns="http://www.w3.org/2000/svg">
<path d="M0 324V316.349C5.45416 316.544 10.849 317.058 16.1816 317.896C8.99271 320.283 3.53026 322.371 0 324Z" fill="#7C86C8" fill-opacity="0.32"/>
<path d="M24.4747 315.25C16.5404 313.085 8.38594 311.602 0 310.846V299.418C14.9474 300.448 29.3931 303.951 43.3032 309.84C36.3386 311.719 30.0424 313.538 24.4747 315.25Z" fill="#7C86C8" fill-opacity="0.32"/>
<path d="M39.6607 305.029C26.9922 299.437 13.7795 295.754 0 294.085V284.817C12.1776 285.81 24.0923 288.452 35.7242 292.685C40.6337 294.471 45.3507 296.681 50.0281 298.96C50.4634 299.173 50.9071 299.375 51.3519 299.578C53.0527 300.353 54.7702 301.135 56.0935 302.547V302.557C56.0062 302.599 55.915 302.657 55.8239 302.715C55.6263 302.842 55.4291 302.967 55.2736 302.927C52.7654 302.288 50.2096 301.987 47.6526 301.686C46.7151 301.576 45.7775 301.465 44.842 301.338C44.6398 301.31 44.4369 301.266 44.238 301.222C43.2852 301.012 42.424 300.822 42.1748 302.577C41.8982 304.545 42.5897 305.112 44.4073 305.339C48.0225 305.791 51.6361 306.256 55.2488 306.729C52.6064 307.393 50.0394 308.054 47.5503 308.709C44.9513 307.42 42.3168 306.2 39.6607 305.029Z" fill="#7C86C8" fill-opacity="0.32"/>
<path d="M40.6683 291.348C27.6905 285.247 14.0995 281.395 0 279.454V269.816C0.965074 269.887 1.93114 269.969 2.89818 270.061C17.9183 271.491 32.326 275.384 46.0521 281.644C46.6564 281.92 47.2647 282.191 47.8737 282.462C51.0626 283.88 54.2685 285.305 56.9974 287.579C57.586 287.859 58.1842 288.078 58.7919 288.235C58.1833 288.078 57.5835 287.859 56.9924 287.579C54.77 287.627 52.5921 287.282 50.4133 286.937C49.1881 286.743 47.9626 286.549 46.7287 286.425L46.6222 286.414C45.5608 286.309 44.7231 286.226 44.7135 287.668C44.7115 287.894 44.6802 288.133 44.649 288.37C44.5265 289.303 44.4056 290.223 46.0669 290.357C47.3612 290.461 48.647 290.658 49.9341 290.854C50.5968 290.956 51.26 291.057 51.9248 291.146L57.9524 291.951C71.13 293.712 84.3057 295.472 97.4829 297.23C86.1714 299.498 75.6093 301.822 65.8954 304.127C64.5828 303.902 63.2755 303.642 61.9761 303.331C55.2587 298.655 48.0722 294.831 40.6683 291.348Z" fill="#7C86C8" fill-opacity="0.32"/>
<path fill-rule="evenodd" clip-rule="evenodd" d="M21.2869 268.921C14.1983 266.887 7.1027 265.409 0 264.506V254.958C16.1362 256.114 31.7293 260.132 46.7238 267.022C47.3267 267.299 47.9358 267.568 48.5458 267.838C51.369 269.086 54.2146 270.344 56.5824 272.429C57.9611 272.913 59.3637 273.215 60.7998 273.215C59.3616 273.216 57.9578 272.914 56.5726 272.429C54.9781 272.593 53.4363 272.292 51.8939 271.991C51.0283 271.821 50.1626 271.652 49.2872 271.565C48.0475 271.442 47.1683 271.437 47.1436 273.016C47.1409 273.229 47.1191 273.444 47.0978 273.654C47.0024 274.593 46.9173 275.431 48.6007 275.596C51.4998 275.883 54.3875 276.298 57.2746 276.714C58.6126 276.906 59.9506 277.099 61.2895 277.278C64.1932 277.67 67.0967 278.063 70.0002 278.455L70.0286 278.459L70.1348 278.473L70.2077 278.482C82.6935 280.17 95.1778 281.857 107.669 283.514C114.292 284.393 120.919 285.239 127.545 286.084L127.601 286.091C130.399 286.448 133.197 286.805 135.995 287.165V283.218C135.55 283.165 135.104 283.112 134.658 283.059L133.693 282.943L133.682 282.942C132.91 282.849 132.138 282.757 131.367 282.666C124.387 281.836 117.418 280.91 110.451 279.984L110.446 279.984C108.093 279.671 105.739 279.358 103.386 279.049L102.492 278.932L102.489 278.931C93.6392 277.767 84.7686 276.6 75.9442 275.211C74.4338 274.974 72.913 274.803 71.3922 274.633L71.3798 274.63C68.3544 274.29 65.3283 273.949 62.386 273.09C62.2469 272.985 62.1101 272.878 61.9734 272.771C61.6589 272.524 61.3454 272.278 61.008 272.069C42.1193 260.319 21.9208 252.497 0 249.756V240.384C13.6901 241.629 27.0119 244.947 39.9324 250.357C40.1996 250.469 40.4671 250.58 40.7346 250.692C44.9839 252.466 49.2526 254.248 53.015 256.998C51.7806 257.293 50.5562 257.116 49.3613 256.829C47.9685 256.494 47.3758 256.79 47.0695 258.379C46.632 260.63 47.8709 260.764 49.2368 260.912L49.2378 260.912L49.2394 260.912C49.3993 260.93 49.561 260.947 49.7219 260.969C60.0201 262.335 70.3172 263.703 80.6142 265.071C90.9112 266.438 101.208 267.806 111.506 269.173C118.589 270.115 125.672 271.047 132.755 271.96C132.877 271.976 133.009 272.016 133.143 272.056C133.622 272.2 134.136 272.354 134.34 271.511C134.726 269.908 133.466 268.127 131.757 267.89C129.546 267.583 127.336 267.286 125.123 266.988C124.488 266.902 123.853 266.817 123.217 266.731C112.518 265.293 101.819 263.854 91.1204 262.414L90.4438 262.323C79.9688 260.914 69.4937 259.505 59.0175 258.097L59.0104 258.098C58.6686 257.348 58.0165 256.965 57.3581 256.579C57.2441 256.512 57.1299 256.445 57.0171 256.376C43.4935 248.063 29.1056 241.753 13.6805 237.915C9.14649 236.787 4.58595 235.905 0 235.254V225.618C14.7852 226.962 29.1042 230.671 42.9107 236.884C43.5563 237.174 44.2099 237.452 44.8643 237.729L44.8652 237.73C47.4348 238.82 50.0146 239.914 52.152 241.817L52.152 241.827C51.9758 242.422 51.4963 242.314 50.9975 242.203C50.3919 242.067 49.7577 241.925 49.6034 243.026C49.2527 245.498 49.465 245.828 52.4483 246.223C64.3096 247.789 76.1685 249.373 88.0266 250.956L88.1448 250.972C93.0904 251.632 98.0359 252.293 102.981 252.952C105.766 253.322 108.552 253.693 111.337 254.064C117.092 254.831 122.848 255.598 128.606 256.356C128.711 256.369 128.823 256.398 128.936 256.427C129.369 256.538 129.827 256.656 130.019 255.956C130.261 255.068 128.463 252.33 127.509 252.202C124.496 251.789 121.482 251.387 118.467 250.985C116.436 250.714 114.406 250.443 112.376 250.169C103.549 248.98 94.7243 247.792 85.8991 246.603C77.074 245.414 68.2489 244.225 59.4225 243.036C56.9529 242.903 54.4981 242.685 52.152 241.817H52.1569C54.5031 242.685 56.9578 242.903 59.4274 243.036C41.0823 231.604 21.5355 223.51 0 220.547V211.137C18.4312 213.16 35.7126 218.715 52.0581 227.92C52.7489 227.42 53.4571 226.994 54.342 227.143C53.4588 226.999 52.748 227.421 52.0631 227.92C51.4309 230.609 52.7595 231.181 55.2242 231.492C67.2025 233.008 79.1706 234.624 91.1396 236.24L91.1423 236.24C95.765 236.865 100.388 237.489 105.011 238.107C109.071 238.65 113.13 239.18 117.386 239.736C119.169 239.969 120.986 240.206 122.852 240.451C122.372 239.848 122.033 239.204 121.711 238.594C121.015 237.271 120.404 236.109 118.619 235.872C105.115 234.096 91.6113 232.286 78.1125 230.456C72.4756 229.692 66.8412 228.903 61.2075 228.115L61.204 228.114L61.1901 228.112L61.1805 228.111C58.9599 227.8 56.7384 227.489 54.5179 227.18H54.5228L54.5115 227.177C54.4088 226.643 53.9955 226.421 53.5911 226.205C53.4966 226.155 53.4021 226.104 53.3127 226.05C36.7183 216.09 18.9896 209.396 0 205.964V0H1440V91.4977C1436.19 89.799 1432.31 88.2404 1428.36 86.8219C1425.5 85.7962 1423.19 86.5675 1420.82 87.3576C1420.22 87.5593 1419.61 87.7622 1418.99 87.9368C1419.31 88.2822 1419.61 88.3808 1419.91 88.4499C1426.78 90.0221 1433.49 92.0621 1440 94.6765V107.73C1428.1 102.726 1415.66 99.2287 1402.63 97.2362C1396.9 96.3581 1393.25 98.9136 1388.85 102.278C1406.92 102.053 1423.91 104.928 1440 110.998V121.443C1428.98 116.986 1417.47 113.842 1405.33 112.327C1396.73 111.257 1388.16 110.912 1379.53 111.341C1378.5 111.39 1377.42 111.469 1376.61 112.392C1375.86 113.247 1375.09 114.077 1374.31 114.908L1374.31 114.909C1373.57 115.697 1372.83 116.486 1372.12 117.295C1372.11 117.307 1372.1 117.32 1372.08 117.331L1372.07 117.346L1372.06 117.354C1372.05 117.365 1372.04 117.376 1372.02 117.386C1371.97 117.434 1371.9 117.48 1371.84 117.528C1371.49 117.777 1371.11 118.056 1371.58 118.627C1371.88 118.983 1372.17 118.89 1372.48 118.79C1372.61 118.752 1372.73 118.712 1372.86 118.696C1373.66 118.605 1374.45 118.511 1375.24 118.418C1380.32 117.817 1385.4 117.216 1390.52 117.088C1407.61 116.664 1424.13 119.196 1440 124.883V136.193C1433.74 133.669 1427.31 131.564 1420.68 129.915C1408.01 126.762 1395.12 125.529 1382.06 125.904C1381.1 125.931 1380.2 126.131 1379.28 126.333C1378.03 126.608 1376.78 126.884 1375.37 126.728C1372.44 126.4 1369.47 127.019 1366.52 127.633C1365.75 127.795 1364.98 127.956 1364.21 128.099C1364 128.139 1363.78 128.351 1363.64 128.543C1362 130.926 1360.51 133.398 1359.27 136.052C1360.09 136.384 1360.65 136.217 1361.19 136.058L1361.19 136.058C1361.29 136.028 1361.39 135.999 1361.48 135.973C1370.75 133.585 1380.17 132.234 1389.71 131.908C1407.04 131.313 1423.82 133.89 1440 139.669V150.046C1427.02 145.086 1413.43 141.968 1399.11 140.995C1384.7 140.018 1370.56 141.41 1356.64 145.194C1356.54 145.22 1356.44 145.244 1356.35 145.269L1356.34 145.27C1355.52 145.479 1354.68 145.691 1354.34 146.757C1353.81 148.408 1353.24 150.045 1352.66 151.692L1352.66 151.695L1352.66 151.704L1352.65 151.718C1352.4 152.435 1352.15 153.154 1351.9 153.876C1352.08 153.915 1352.21 153.953 1352.32 153.983C1352.48 154.029 1352.57 154.055 1352.65 154.034C1353.51 153.797 1354.38 153.556 1355.24 153.274C1366.93 149.431 1378.94 147.246 1391.22 146.733C1408.05 146.028 1424.33 148.305 1440 153.573V164.83C1436.17 163.369 1432.26 162.063 1428.29 160.921C1404.46 154.084 1380.55 153.531 1356.56 159.984C1349.27 161.944 1349.26 162.031 1348.86 169.582L1348.85 169.673C1348.59 170.147 1348.8 170.176 1349.19 170.023C1349.08 169.9 1348.97 169.782 1348.85 169.673H1348.86L1348.86 169.675C1348.91 169.726 1348.96 169.777 1349.01 169.829C1349.07 169.892 1349.13 169.956 1349.19 170.023C1349.61 169.891 1350.02 169.758 1350.44 169.624L1351.61 169.249C1353.37 168.684 1355.14 168.12 1356.91 167.571C1374.2 162.194 1391.88 160.349 1409.9 162.061C1420.23 163.045 1430.27 165.194 1440 168.476V180.03C1427.91 175.239 1415.32 172.276 1402.32 170.882C1391 169.668 1379.7 170.156 1368.45 171.987C1361.47 173.121 1354.72 175.07 1348 177.196V185.085C1348.3 184.985 1348.61 184.888 1348.92 184.79C1349.55 184.588 1350.18 184.385 1350.81 184.162C1364.85 179.17 1379.35 176.575 1394.22 176.382C1409.9 176.178 1425.18 178.667 1440 183.725V194.284C1428.99 190.066 1417.57 187.263 1405.74 185.938C1387.68 183.916 1369.98 185.391 1352.68 190.97C1351.95 191.204 1351.35 191.378 1350.86 191.522C1349.68 191.863 1349.09 192.034 1348.84 192.423C1348.6 192.812 1348.7 193.42 1348.9 194.638C1349 195.231 1349.12 195.968 1349.23 196.895C1349.61 199.89 1349.78 199.885 1352.7 198.814C1366.41 193.787 1380.63 191.375 1395.17 191.118C1410.63 190.845 1425.59 193.151 1440 197.948V209.866C1427.8 205.704 1415.07 203.182 1401.76 202.47C1386.46 201.651 1371.45 203.536 1356.83 208.257C1352.22 209.749 1352.22 209.752 1353.65 214.227L1353.73 214.483C1354.34 216.382 1354.98 216.836 1356.98 216.096C1369.78 211.37 1383.07 208.869 1396.68 208.361C1411.55 207.806 1426.01 209.56 1440 213.673V223.852C1434.88 222.294 1429.75 220.811 1424.48 219.771C1403.58 215.642 1382.86 216.165 1362.34 222.08C1357.33 223.521 1357.35 223.555 1359.73 227.893L1359.85 228.114C1360.8 229.85 1361.73 230.062 1363.54 229.49C1379.74 224.379 1396.27 222.287 1413.3 223.442C1422.41 224.059 1431.3 225.505 1440 227.841V238.643C1432.63 236.276 1425.12 234.484 1417.46 233.417C1406.88 231.947 1396.32 231.32 1385.6 232.726C1384.2 232.91 1382.8 233.079 1381.39 233.248C1377.52 233.715 1373.64 234.182 1369.81 234.956C1364.65 235.999 1364.67 236.031 1367.7 240.154L1367.81 240.309C1368.99 241.917 1370.03 242.376 1372.08 241.868C1394.35 236.338 1416.64 236.466 1438.82 242.312C1439.22 242.415 1439.61 242.52 1440 242.626V250.364C1438.44 250.685 1436.88 251.005 1435.33 251.323C1417.4 246.632 1399.2 245.328 1380.66 248.193C1380.28 248.252 1379.9 248.293 1379.51 248.334C1378.24 248.468 1376.93 248.606 1375.69 249.391C1376 249.693 1376.3 249.986 1376.6 250.273L1376.96 250.622L1376.96 250.623L1376.97 250.625C1377.92 251.546 1378.82 252.418 1379.68 253.333C1380.98 254.714 1382.37 255.06 1384.29 254.655C1390.16 253.417 1396.16 252.894 1402.14 252.712C1409.45 252.49 1416.65 252.814 1423.74 253.693C1177.17 303.983 1030.57 324 782.085 324C678.8 324 600.19 311.488 524.1 299.377C452.735 288.019 383.588 277.013 298.378 277.013C227.29 277.013 161.599 285.128 109.68 294.865C103.915 294.099 98.1504 293.326 92.3868 292.547C85.3069 291.59 78.232 290.596 71.1568 289.601C68.3116 289.201 65.4664 288.801 62.6208 288.403L62.6231 288.403C62.4254 287.613 61.8092 287.294 61.198 286.977C61.0152 286.883 60.8328 286.788 60.6622 286.681C48.3389 278.98 35.2747 272.937 21.2869 268.921ZM49.3918 193.078C48.8052 192.719 48.2186 192.361 47.6326 192L47.6277 192.01H43.6763C43.706 192.102 43.7267 192.21 43.7475 192.317C43.7925 192.551 43.8375 192.784 43.9726 192.858C47.0448 194.565 50.1318 196.253 53.2386 197.89C53.321 197.933 53.4068 197.982 53.4949 198.033C54.0453 198.348 54.6887 198.716 55.1995 197.96C55.8236 197.035 55.1056 196.608 54.4904 196.242C54.4096 196.194 54.33 196.147 54.2561 196.1C52.6474 195.07 51.0201 194.074 49.3918 193.078ZM68.0662 213.965H68.0673C79.5076 215.541 90.9472 217.117 102.413 218.497C105.979 218.926 107.911 220.86 110.301 223.657C108.575 223.43 106.916 223.213 105.3 223.002C102.426 222.626 99.6884 222.267 96.9506 221.901C93.2682 221.409 89.5867 220.911 85.9052 220.414L85.8758 220.41L85.8717 220.409C76.5428 219.149 67.2148 217.888 57.8765 216.711C55.5502 216.42 53.8856 216.045 54.4734 213.199L54.4752 213.197C53.0566 212.463 51.6415 211.721 50.226 210.978L50.2215 210.976C47.14 209.359 44.0572 207.742 40.935 206.208C31.9951 201.822 22.6155 198.67 12.9149 196.45C12.6087 196.381 12.3074 196.282 11.9863 195.937C12.608 195.762 13.2159 195.559 13.8202 195.358C16.1877 194.568 18.4994 193.796 21.356 194.822C32.6866 198.887 43.4145 204.102 53.5992 210.471C53.7433 210.561 53.8934 210.644 54.0437 210.729C54.6751 211.082 55.3104 211.437 55.5193 212.247H55.5205C59.6954 212.812 63.8689 213.387 68.0423 213.962L68.0662 213.965ZM59.4274 197.678C57.4666 197.353 56.8294 197.871 57.0023 199.647L57.0072 199.652C56.6146 201.68 57.879 201.71 58.9716 201.735C59.2262 201.741 59.4715 201.747 59.6843 201.778C63.6462 202.353 67.6131 202.893 71.5793 203.433L71.589 203.435C75.5753 203.977 79.5611 204.52 83.5406 205.098C84.2124 205.197 84.6569 205.226 84.9878 204.713C85.4472 204.003 84.8545 203.662 84.3457 203.421C83.7202 203.123 83.1022 202.811 82.4846 202.499L82.4834 202.498C80.049 201.268 77.6227 200.041 74.7785 199.75C69.6417 199.222 64.5148 198.532 59.4274 197.678Z" fill="#7C86C8" fill-opacity="0.32"/>
<path d="M0 341V339.766C13.6706 330.013 51.9753 311.145 105.514 294.616C159.878 277.832 230.043 263.429 306.252 263.429C393.836 263.429 464.915 281.391 538.146 299.897C540.581 300.513 543.019 301.129 545.459 301.745C621.299 320.885 700.138 340 802.723 340C1050.5 340 1199.49 309.206 1440 232.238V234.337C1199.72 311.205 1050.55 342 802.723 342C699.873 342 620.83 322.829 544.97 303.684C542.548 303.073 540.13 302.461 537.714 301.851C464.45 283.337 393.584 265.429 306.252 265.429C230.286 265.429 160.323 279.787 106.104 296.527C51.8526 313.276 13.4569 332.38 0.59103 341.807L0 341Z" fill="#7C86C8" fill-opacity="0.32"/>
</svg>
