<svg width="1440" height="324" viewBox="0 0 1440 324" fill="none" xmlns="http://www.w3.org/2000/svg">
<path fill-rule="evenodd" clip-rule="evenodd" d="M1440 6.83721e-05V324L0 324L2.18875e-05 73.6363C15.3762 70.4748 30.3607 67.4278 45 64.4928V72.0849C45.3037 71.9854 45.609 71.8879 45.9147 71.7904C46.5485 71.5881 47.184 71.3854 47.8104 71.1624C61.8476 66.1698 76.3492 63.5748 91.2162 63.3824C107.866 63.1654 124.052 65.9823 139.724 71.6853C144.634 73.4712 149.351 75.6813 154.028 77.9605C154.463 78.1733 154.907 78.3754 155.352 78.5781C157.053 79.3529 158.77 80.1354 160.093 81.5471V81.557C160.006 81.599 159.915 81.6572 159.824 81.7154C159.626 81.8416 159.429 81.9675 159.274 81.927C156.765 81.288 154.21 80.9872 151.653 80.6862L151.652 80.6862C150.715 80.5758 149.777 80.4655 148.842 80.3384C148.64 80.3103 148.437 80.2656 148.238 80.2217C147.285 80.0116 146.424 79.8217 146.175 81.5767C145.898 83.5451 146.59 84.1125 148.407 84.3394C156.886 85.398 165.356 86.5316 173.826 87.665L175.296 87.8618C185.655 89.2451 196.014 90.6371 206.372 92.0291L206.399 92.0327C211.585 92.7296 216.771 93.4265 221.957 94.1223C223.41 94.3172 224.863 94.5037 226.317 94.6902C229.021 95.037 231.724 95.3838 234.419 95.7848C236.249 96.0556 236.444 94.941 236.63 93.8758L236.63 93.8755C236.675 93.6212 236.719 93.3697 236.785 93.1405C237.148 91.871 236.296 91.8582 235.562 91.8472C235.389 91.8446 235.223 91.8422 235.081 91.8233C228.512 90.9402 221.941 90.0691 215.37 89.198L215.367 89.1975L215.364 89.1971L215.361 89.1967L215.357 89.1962L215.354 89.1958L215.351 89.1954L215.348 89.1949L215.344 89.1945L215.341 89.1941L215.338 89.1936L215.335 89.1932L215.331 89.1928L215.328 89.1923L215.325 89.1919C204.475 87.7534 193.625 86.3149 182.784 84.8229C181.154 84.5978 179.519 84.4048 177.883 84.2119L177.883 84.2118C173.89 83.7406 169.897 83.2694 165.976 82.3315C159.259 77.6547 152.072 73.8313 144.668 70.3484C130.261 63.5748 115.097 59.5739 99.3214 57.8817C93.2538 57.2312 87.1918 57.0697 81.1401 57.3417C93.3649 54.9574 105.359 52.6559 117.153 50.4357C128.503 52.4052 139.48 55.8223 150.052 60.6444C150.656 60.9201 151.263 61.1902 151.871 61.4606L151.872 61.461L151.874 61.4618C155.063 62.8797 158.268 64.3051 160.997 66.5793C161.659 66.8933 162.333 67.1313 163.019 67.2902C162.332 67.1314 161.657 66.8937 160.992 66.5793C158.77 66.6266 156.592 66.2819 154.413 65.9371L154.413 65.937L154.413 65.937L154.413 65.937L154.413 65.937L154.413 65.937L154.413 65.9369L154.412 65.9369L154.412 65.9369L154.412 65.9369L154.412 65.9368L154.412 65.9368L154.412 65.9368C153.187 65.743 151.962 65.5491 150.729 65.4249L150.622 65.4144C149.561 65.3091 148.723 65.2261 148.714 66.6681C148.712 66.8944 148.68 67.1326 148.649 67.3701C148.526 68.3027 148.406 69.2231 150.067 69.3568C151.361 69.4609 152.647 69.6576 153.934 69.8544L153.934 69.8544C154.597 69.9558 155.26 70.0572 155.925 70.1461L162.036 70.9625C179.053 73.2359 196.068 75.5089 213.086 77.778C215.246 78.0662 217.407 78.3516 219.568 78.637L219.578 78.6383C225.478 79.4174 231.379 80.1967 237.269 81.034C238.894 81.2659 239.215 80.5358 239.437 79.2235C239.689 77.7238 239.126 77.2008 237.669 77.0134C223.903 75.2275 210.142 73.4071 196.387 71.5472C189.318 70.5917 182.253 69.5986 175.189 68.6054L175.186 68.605L175.183 68.6045L175.179 68.6041L175.176 68.6037L175.173 68.6032L175.17 68.6028L175.167 68.6024L175.164 68.6019L175.16 68.6015L175.157 68.6011L175.154 68.6006L175.151 68.6002L175.135 68.598L175.12 68.5958L175.104 68.5937C172.277 68.1961 169.449 67.7986 166.621 67.4035L166.623 67.4031C166.425 66.6133 165.809 66.294 165.198 65.9774C165.015 65.8826 164.833 65.7882 164.662 65.6814C152.945 58.3591 140.558 52.5355 127.344 48.5284C134.256 47.2424 141.101 45.9847 147.885 44.755C148.834 45.1659 149.78 45.5882 150.724 46.0219C151.327 46.2989 151.936 46.5681 152.546 46.8378C155.369 48.0858 158.215 49.3437 160.582 51.4289C161.96 51.9129 163.362 52.2145 164.798 52.2154C163.36 52.2158 161.957 51.914 160.573 51.4289C158.978 51.5932 157.436 51.292 155.894 50.9907C155.028 50.8216 154.163 50.6524 153.287 50.5655C152.048 50.4422 151.168 50.4373 151.144 52.0159C151.141 52.2292 151.119 52.4438 151.098 52.6533V52.6535V52.6537V52.6538V52.654V52.6542V52.6543C151.002 53.5932 150.917 54.4308 152.601 54.5961C155.5 54.8826 158.387 55.2982 161.274 55.7136L161.275 55.7137C162.613 55.9062 163.951 56.0987 165.29 56.2784C168.174 56.6677 171.058 57.0574 173.942 57.4471L173.969 57.4507C186.534 59.1484 199.098 60.846 211.669 62.5142C218.294 63.3937 224.922 64.2392 231.55 65.0848L231.557 65.0858C234.37 65.4446 237.182 65.8034 239.995 66.1649V62.2182C239.228 62.1273 238.459 62.0351 237.69 61.943L237.682 61.942C236.91 61.8495 236.138 61.7569 235.367 61.6656C228.385 60.8359 221.414 59.9096 214.446 58.9838L214.446 58.9837L214.445 58.9836L214.444 58.9834L214.442 58.9833L214.441 58.9831L214.44 58.983L214.439 58.9828L214.438 58.9827L214.437 58.9825L214.436 58.9824L214.434 58.9822L214.433 58.9821L214.432 58.9819L214.431 58.9818L214.43 58.9816L214.429 58.9815L214.428 58.9813L214.426 58.9812L214.425 58.981L214.424 58.9809L214.423 58.9807L214.422 58.9806L214.421 58.9804L214.42 58.9803L214.418 58.9801L214.417 58.98L214.416 58.9798C212.073 58.6684 209.73 58.3571 207.386 58.0495L206.493 57.932C197.642 56.7675 188.77 55.6002 179.944 54.2113C178.429 53.9732 176.904 53.8016 175.379 53.63C172.353 53.2896 169.328 52.9493 166.386 52.0899C166.247 51.9854 166.11 51.8781 165.973 51.7709C165.659 51.5243 165.345 51.2785 165.008 51.0687C160.877 48.4989 156.683 46.117 152.423 43.9351C156.882 43.1319 161.315 42.3408 165.724 41.5618C171.944 42.3877 178.163 43.2139 184.383 44.04L184.604 44.0693C194.904 45.4376 205.205 46.8058 215.506 48.1728C222.589 49.1151 229.672 50.0475 236.755 50.9602C236.877 50.9765 237.009 51.0161 237.143 51.0565C237.622 51.2001 238.136 51.3543 238.34 50.5113C238.726 48.9079 237.466 47.127 235.757 46.8902C233.549 46.5838 231.341 46.2864 229.13 45.9887C228.493 45.9028 227.855 45.8169 227.217 45.7308C216.563 44.299 205.911 42.866 195.258 41.433L195.211 41.4267L195.164 41.4204L195.117 41.4141L194.96 41.3929L194.804 41.3719C189.53 40.6625 184.256 39.953 178.981 39.2437C191.364 37.1013 203.568 35.0553 215.634 33.1038C221.29 33.8574 226.947 34.611 232.606 35.3559C232.711 35.3693 232.823 35.398 232.936 35.4271C233.369 35.5382 233.827 35.6557 234.019 34.9563C234.261 34.0683 232.463 31.3303 231.509 31.202C230.8 31.1049 230.091 31.0083 229.381 30.9122C367.387 9.23314 489.152 -1.47537e-05 657.915 0C761.2 9.02947e-06 839.81 12.5119 915.9 24.6227C987.265 35.9812 1056.41 46.987 1141.62 46.987C1289.88 46.9871 1414.67 11.6884 1440 6.83721e-05ZM152.077 90.9649C155.574 92.5979 159.036 94.3443 162.094 96.7616C161.768 97.3817 161.2 97.2959 160.701 97.2203L160.662 97.2145L160.614 97.2073L160.568 97.2007C159.495 97.0474 158.422 96.8981 157.348 96.7488L157.346 96.7484L157.343 96.7481L157.341 96.7478L157.339 96.7475L157.337 96.7472L157.334 96.7468L157.332 96.7465L157.33 96.7462L157.328 96.7459L157.325 96.7456L157.323 96.7452L157.323 96.7451L157.322 96.7451L157.322 96.7451L157.322 96.7451L157.322 96.745L157.322 96.745L157.322 96.745L157.322 96.745L157.321 96.745L157.321 96.7449L157.321 96.7449L157.321 96.7449L157.321 96.7449C153.637 96.2325 149.95 95.7197 146.293 95.0448C144.244 94.665 143.745 95.2964 143.661 97.1958C143.575 99.1403 144.749 99.1179 145.792 99.0981C146.069 99.0928 146.337 99.0877 146.57 99.1198C159.244 100.863 171.924 102.546 184.605 104.23L184.607 104.23L184.608 104.23L184.61 104.23L184.611 104.231L184.612 104.231L184.614 104.231L184.615 104.231L184.616 104.231L184.618 104.231L184.619 104.232L184.621 104.232L184.622 104.232L184.628 104.233L184.634 104.234L184.64 104.235C187.416 104.603 190.193 104.972 192.969 105.341C195.978 105.74 198.987 106.135 201.997 106.53L201.998 106.53C210.878 107.695 219.756 108.86 228.62 110.146C231.174 110.516 231.49 108.745 231.727 107.373C231.924 106.236 230.93 106.232 230.076 106.227C229.836 106.226 229.608 106.225 229.42 106.199C211.494 103.758 193.564 101.353 175.637 98.9473L175.633 98.9467L175.628 98.9461L175.623 98.9455L175.619 98.9449L175.614 98.9442L175.61 98.9436L175.605 98.943L175.6 98.9424L175.596 98.9418L175.591 98.9412L175.586 98.9405L175.582 98.9399L175.577 98.9393L168.871 98.0395L168.875 98.0394C161.047 92.3315 152.472 87.9161 143.661 84.0286C130.606 78.2664 116.974 74.5319 102.739 72.9384C84.6767 70.9157 66.9795 72.3908 49.6774 77.9704C48.9545 78.2038 48.3541 78.3778 47.858 78.5217L47.8579 78.5217C46.68 78.8632 46.0903 79.0342 45.8449 79.4227C45.5988 79.8122 45.6989 80.4204 45.8992 81.6383C45.9968 82.2312 46.1181 82.9685 46.2348 83.8954C46.6102 86.89 46.7831 86.885 49.7021 85.8145C63.4134 80.7874 77.6334 78.375 92.1695 78.1184C113.102 77.7484 133.101 82.1046 152.077 90.9649ZM162.094 96.7616H162.099C162.867 97.1101 163.651 97.3775 164.448 97.5756C163.649 97.378 162.864 97.1108 162.094 96.7616ZM157.058 108.309C159.644 109.439 162.244 110.575 164.445 112.435C159.649 112.14 154.904 111.433 150.16 110.726C148.065 110.414 145.971 110.102 143.873 109.825C141.605 109.525 141.158 110.301 141.161 112.129L140.119 111.808C133.967 109.915 127.818 108.023 121.484 106.771C100.581 102.642 79.856 103.165 59.3385 109.08C54.3347 110.521 54.3529 110.555 56.7282 114.893L56.8492 115.114C57.7975 116.85 58.7261 117.062 60.5388 116.49C76.7394 111.379 93.2709 109.287 110.301 110.442C123.109 111.31 135.486 113.816 147.508 118.133C154.675 120.708 161.728 123.619 168.159 127.797C168.72 127.893 169.274 128.042 169.828 128.191L169.828 128.191L169.828 128.191L169.828 128.191L169.829 128.191L169.829 128.192L169.829 128.192L169.829 128.192L169.829 128.192L169.83 128.192L169.83 128.192L169.83 128.192L169.83 128.192L169.831 128.192L169.831 128.192L169.831 128.192L169.831 128.192L169.831 128.192L169.832 128.192L169.832 128.192L169.832 128.192L169.832 128.192C171.137 128.543 172.443 128.895 173.839 128.552C173.554 128.362 173.27 128.169 172.985 127.977L172.983 127.975L172.982 127.975L172.982 127.975L172.982 127.975L172.982 127.975L172.982 127.975L172.982 127.975L172.982 127.975L172.981 127.975L172.981 127.975L172.981 127.974L172.981 127.974L172.981 127.974L172.981 127.974L172.981 127.974L172.981 127.974L172.98 127.974L172.98 127.974L172.98 127.974L172.98 127.974L172.98 127.974L172.98 127.973C172.388 127.573 171.794 127.172 171.192 126.786C164.292 122.352 156.881 118.879 149.475 115.408L149.474 115.408L148.689 115.04C150.65 114.742 152.574 115.029 154.497 115.317L154.497 115.317L154.498 115.317L154.498 115.317L154.498 115.317L154.498 115.317L154.499 115.317C154.929 115.381 155.36 115.446 155.791 115.504C167.867 117.124 179.94 118.75 192.013 120.375L192.017 120.376L192.021 120.377L192.026 120.377L192.03 120.378L192.034 120.378L192.038 120.379L192.043 120.379L192.047 120.38L192.051 120.381L192.055 120.381L192.06 120.382C197.719 121.144 203.377 121.905 209.036 122.667C210.786 122.901 212.537 123.132 214.288 123.363L214.296 123.364L214.297 123.364L214.297 123.364L214.298 123.364L214.298 123.364L214.298 123.364L214.299 123.364L214.299 123.364L214.299 123.364L214.3 123.364C216.534 123.659 218.769 123.954 221.004 124.255C222.741 124.489 223.284 123.295 223.791 122.179C223.915 121.905 224.038 121.636 224.175 121.394C224.655 120.545 223.909 120.515 223.338 120.493C223.216 120.488 223.102 120.484 223.009 120.471C218.182 119.818 213.354 119.175 208.525 118.532L208.519 118.531C199.748 117.362 190.978 116.194 182.216 114.966C181.068 114.805 179.911 114.687 178.753 114.57C175.834 114.274 172.91 113.977 170.105 112.978L170.104 112.978C170.044 112.926 169.985 112.872 169.927 112.818C169.806 112.706 169.685 112.594 169.547 112.509C147.879 98.9225 124.388 90.8416 98.7633 89.4701C83.4616 88.6512 68.4464 90.5357 53.8313 95.257C49.2153 96.7486 49.2164 96.7522 50.6479 101.228L50.7295 101.483C51.337 103.382 51.984 103.836 53.9844 103.096C66.7819 98.3699 80.0733 95.8687 93.6759 95.3606C115.102 94.5614 135.664 98.5525 155.194 107.482C155.81 107.764 156.433 108.036 157.057 108.309L157.058 108.309L157.058 108.309ZM151.136 130.981L151.144 130.985L151.144 130.985L151.145 130.985L151.145 130.985L151.145 130.985L151.145 130.985L151.145 130.985L151.145 130.985L151.146 130.985L151.146 130.985L151.146 130.986L151.146 130.986L151.146 130.986L151.147 130.986L151.147 130.986L151.147 130.986L151.147 130.986L151.147 130.986L151.147 130.986L151.148 130.986C156.171 133.32 161.196 135.653 165.966 138.478C167.826 139.581 169.644 140.756 171.462 141.932L171.465 141.933L171.468 141.935L171.47 141.937L171.473 141.938L171.476 141.94L171.478 141.942L171.481 141.943L171.484 141.945L171.486 141.947C172.296 142.47 173.105 142.994 173.918 143.51C173.575 143.517 173.23 143.538 172.885 143.558L172.884 143.558C171.562 143.637 170.238 143.715 168.989 143.047C166.669 141.481 164.14 140.325 161.616 139.17L161.615 139.17C160.296 138.567 158.979 137.964 157.693 137.304C150.699 133.708 143.34 131.29 135.822 129.312C113.635 123.466 91.3545 123.338 69.0836 128.868C67.0289 129.376 65.9916 128.917 64.8112 127.309L64.6973 127.154C61.6734 123.031 61.6499 122.999 66.8116 121.956C70.6395 121.182 74.5153 120.715 78.3902 120.249L78.3903 120.249L78.3905 120.248L78.3906 120.248L78.3908 120.248L78.391 120.248L78.3911 120.248L78.3913 120.248L78.3914 120.248L78.3916 120.248L78.3918 120.248L78.3919 120.248L78.3921 120.248L78.3922 120.248L78.3924 120.248L78.3926 120.248L78.3927 120.248L78.3929 120.248L78.393 120.248L78.3932 120.248C79.7971 120.079 81.2009 119.91 82.6022 119.727C93.3203 118.32 103.88 118.947 114.455 120.417C123.069 121.616 131.495 123.732 139.734 126.549C140.056 126.66 140.39 126.737 140.725 126.814L140.726 126.814L140.727 126.814C140.867 126.846 141.008 126.879 141.148 126.914L141.147 126.909C141.206 125.119 141.586 124.27 143.898 124.63C149.731 125.534 155.595 126.254 161.459 126.974L161.459 126.974L161.459 126.974L161.459 126.974L161.46 126.974L161.46 126.974L161.46 126.974L161.46 126.974L161.46 126.974L161.461 126.974C163.694 127.249 165.928 127.523 168.159 127.807C168.724 127.903 169.281 128.053 169.838 128.203L169.838 128.203C171.142 128.554 172.445 128.904 173.839 128.562C176.666 128.951 179.492 129.339 182.319 129.728C190.798 130.895 199.277 132.061 207.757 133.219C208.732 133.353 209.711 133.47 210.69 133.587L210.691 133.587L210.691 133.587L210.692 133.587L210.693 133.587L210.693 133.587L210.694 133.587L210.695 133.588L210.695 133.588L210.696 133.588L210.697 133.588L210.699 133.588L210.7 133.588L210.701 133.588C211.35 133.666 211.999 133.744 212.647 133.826C213.699 133.959 214.242 134.3 213.299 135.336C212.01 136.756 210.844 137.743 208.503 137.408C191.474 134.996 174.424 132.748 157.373 130.499L157.372 130.499L157.371 130.499C155.694 130.278 154.016 130.056 152.339 129.835C151.509 129.726 150.657 129.763 149.806 129.799L149.803 129.799L149.802 129.799C149.426 129.815 149.049 129.831 148.674 129.835C149.491 130.217 150.309 130.597 151.128 130.977L151.129 130.978L151.13 130.978L151.131 130.978L151.132 130.979L151.133 130.979L151.134 130.98L151.135 130.98L151.136 130.981ZM143.572 128.587C142.622 128.51 141.951 128.208 141.495 127.563C141.951 128.202 142.62 128.506 143.567 128.582C143.7 128.592 143.834 128.602 143.967 128.613C145.589 128.735 147.24 128.859 148.664 129.83L148.663 129.831C147.254 128.873 145.618 128.746 144.016 128.622C143.868 128.61 143.719 128.599 143.572 128.587ZM152.482 145.015C154.094 146.176 155.899 146.958 157.704 147.74C158.738 148.187 159.772 148.635 160.77 149.154C165.655 151.7 170.446 154.388 175.148 157.245C176.2 157.886 177.005 158.463 175.479 159.44C171.338 162.736 166.782 162.086 162.199 161.433C161.486 161.331 160.772 161.229 160.059 161.142C158.925 161.004 157.795 160.817 156.665 160.629L156.665 160.629C153.997 160.185 151.329 159.742 148.595 159.953L148.6 159.958C149.795 160.526 151.03 161.008 152.293 161.502L152.293 161.502L152.293 161.502L152.293 161.502L152.294 161.502L152.294 161.502L152.294 161.502L152.294 161.502C154.345 162.304 156.472 163.135 158.627 164.408C158.222 164.47 157.83 164.536 157.448 164.6L157.444 164.601L157.441 164.601L157.44 164.601C155.201 164.976 153.32 165.29 151.267 164.566C136.331 159.302 120.926 156.677 105.085 156.978C100.992 157.055 97.9334 155.096 94.8436 153.118L94.8432 153.118L94.8429 153.117L94.8426 153.117L94.8423 153.117L94.842 153.117L94.8411 153.116C93.9501 152.546 93.0566 151.974 92.1349 151.448C107.14 150.274 121.785 152.075 136.212 155.942C136.286 154.433 136.85 153.91 138.539 154.161C142.937 154.826 147.349 155.392 151.761 155.958C158.327 156.8 164.894 157.643 171.414 158.809C171.517 158.826 171.648 158.691 171.778 158.558L171.778 158.557C171.836 158.498 171.893 158.44 171.948 158.394C169.161 155.919 165.808 154.419 162.48 152.929L162.48 152.929C161.862 152.653 161.245 152.376 160.632 152.094C141.132 143.116 120.59 139.06 99.1436 139.712C93.1573 139.894 87.1611 140.417 81.2884 141.655C79.367 142.06 77.9791 141.715 76.6801 140.333C75.8218 139.417 74.9178 138.545 73.963 137.623C73.5497 137.224 73.1269 136.816 72.6942 136.391C73.9336 135.606 75.2395 135.468 76.5079 135.334C76.8975 135.293 77.2835 135.252 77.663 135.193C98.4175 131.986 118.752 134.004 138.746 140.151C138.474 141.86 139.065 142.722 140.202 143.161C139.068 142.72 138.479 141.859 138.751 140.156C139.19 139.163 139.932 139.277 140.755 139.402C140.84 139.415 140.926 139.428 141.013 139.44C149.842 140.653 158.676 141.827 167.509 143.001L167.51 143.001L167.512 143.001L167.513 143.002L167.514 143.002L167.516 143.002L167.517 143.002C167.846 143.046 168.179 143.046 168.511 143.046C168.62 143.047 168.729 143.047 168.838 143.048C168.886 143.049 168.935 143.05 168.984 143.051C170.237 143.72 171.558 143.642 172.879 143.563C173.224 143.543 173.57 143.522 173.913 143.515C176.71 144.356 179.589 144.673 182.469 144.989H182.469C183.896 145.146 185.323 145.302 186.741 145.523C189.504 145.958 192.279 146.317 195.209 146.697L195.212 146.698C196.539 146.87 197.897 147.046 199.301 147.235C196.93 149.312 195.108 150.772 191.951 150.313C182.365 148.913 172.755 147.662 163.146 146.411C159.591 145.948 156.036 145.485 152.482 145.015ZM173.408 158.826L173.409 158.827C174.037 159.012 174.664 159.198 175.291 159.384C175.102 159.328 174.914 159.272 174.726 159.216C174.613 159.183 174.501 159.15 174.388 159.117C174.164 159.05 173.939 158.984 173.714 158.917C173.129 158.745 172.544 158.572 171.96 158.398L172.331 158.508L172.741 158.629L173.408 158.826ZM147.095 159.626L147.098 159.627C147.595 159.737 148.092 159.848 148.59 159.956C148.065 159.843 147.541 159.726 147.016 159.61L147.014 159.609C144.573 159.067 142.131 158.524 139.632 158.353C142.159 158.525 144.627 159.075 147.095 159.626L147.095 159.626Z" fill="#7C86C8" fill-opacity="0.32"/>
</svg>
